Parix-Hybrid111R.ufo
<glyph name="ampersand" format="1">
  <advance width="897"/>
  <unicode hex="0026"/>
  <outline>
    <contour>
      <point x="810" y="82" type="curve"/>
      <point x="827" y="68" type="line"/>
      <point x="787" y="0" type="line"/>
      <point x="669" y="-35"/>
      <point x="584" y="-2"/>
      <point x="542" y="58" type="curve"/>
      <point x="426" y="223"/>
      <point x="380" y="462"/>
      <point x="379" y="525" type="curve"/>
      <point x="377" y="614"/>
      <point x="432" y="659"/>
      <point x="498" y="659" type="curve"/>
      <point x="577" y="659"/>
      <point x="652" y="609"/>
      <point x="652" y="549" type="curve"/>
      <point x="652" y="437"/>
      <point x="522" y="406"/>
      <point x="413" y="388" type="curve"/>
      <point x="288" y="367"/>
      <point x="175" y="335"/>
      <point x="175" y="217" type="curve"/>
      <point x="175" y="120"/>
      <point x="252" y="71"/>
      <point x="330" y="71" type="curve"/>
      <point x="458" y="71"/>
      <point x="556" y="184"/>
      <point x="663" y="289" type="curve"/>
      <point x="708" y="333"/>
      <point x="699" y="358"/>
      <point x="673" y="375" type="curve"/>
      <point x="675" y="402" type="line"/>
      <point x="728" y="398"/>
      <point x="780" y="398"/>
      <point x="833" y="402" type="curve"/>
      <point x="836" y="375" type="line"/>
      <point x="785" y="335"/>
      <point x="741" y="305"/>
      <point x="690" y="257" type="curve"/>
      <point x="613" y="185"/>
      <point x="451" y="1"/>
      <point x="283" y="-4" type="curve"/>
      <point x="148" y="-8"/>
      <point x="60" y="72"/>
      <point x="60" y="197" type="curve"/>
      <point x="60" y="383"/>
      <point x="237" y="416"/>
      <point x="345" y="419" type="curve"/>
      <point x="415" y="421"/>
      <point x="559" y="438"/>
      <point x="559" y="542" type="curve"/>
      <point x="559" y="574"/>
      <point x="546" y="590"/>
      <point x="515" y="590" type="curve"/>
      <point x="488" y="590"/>
      <point x="458" y="567"/>
      <point x="458" y="502" type="curve"/>
      <point x="458" y="436"/>
      <point x="516" y="237"/>
      <point x="604" y="105" type="curve"/>
      <point x="645" y="43"/>
      <point x="734" y="49"/>
    </contour>
  </outline>
</glyph>
<glyph name="comma" format="1">
  <advance width="222"/>
  <unicode hex="002C"/>
  <outline>
    <contour>
      <point x="67" y="51" type="curve"/>
      <point x="72" y="74" type="line"/>
      <point x="176" y="74" type="line"/>
      <point x="182" y="51" type="line"/>
      <point x="153" y="-49"/>
      <point x="88" y="-133"/>
      <point x="-45" y="-170" type="curve"/>
      <point x="-50" y="-141" type="line"/>
      <point x="14" y="-116"/>
      <point x="80" y="-40"/>
      <point x="80" y="14" type="curve"/>
      <point x="80" y="28"/>
      <point x="76" y="43"/>
    </contour>
  </outline>
</glyph>
<glyph name="hyphen" format="1">
  <advance width="312"/>
  <unicode hex="002D"/>
  <outline>
    <contour>
      <point x="282" y="451" type="line"/>
      <point x="20" y="154" type="line"/>
      <point x="22" y="117" type="line"/>
      <point x="31" y="117" type="line"/>
      <point x="292" y="378" type="line"/>
      <point x="292" y="451" type="line"/>
    </contour>
  </outline>
</glyph>
<glyph name="period" format="1">
  <advance width="167"/>
  <unicode hex="002E"/>
  <outline>
    <contour>
      <point x="89" y="124" type="curve"/>
      <point x="68" y="112"/>
      <point x="37" y="87"/>
      <point x="20" y="66" type="curve"/>
      <point x="36" y="45"/>
      <point x="61" y="18"/>
      <point x="80" y="0" type="curve"/>
      <point x="103" y="17"/>
      <point x="129" y="40"/>
      <point x="147" y="57" type="curve"/>
      <point x="132" y="80"/>
      <point x="111" y="107"/>
    </contour>
  </outline>
</glyph>
<glyph name="C" format="1">
  <advance width="757"/>
  <unicode hex="0043"/>
  <outline>
    <contour>
      <point x="417" y="35" type="curve"/>
      <point x="527" y="35"/>
      <point x="625" y="82"/>
      <point x="692" y="155" type="curve"/>
      <point x="717" y="141" type="line"/>
      <point x="632" y="-48" type="line"/>
      <point x="605" y="-42" type="line"/>
      <point x="599" y="42" type="line"/>
      <point x="551" y="12"/>
      <point x="488" y="-10"/>
      <point x="414" y="-10" type="curve"/>
      <point x="174" y="-10"/>
      <point x="45" y="127"/>
      <point x="45" y="350" type="curve"/>
      <point x="45" y="567"/>
      <point x="231" y="710"/>
      <point x="461" y="710" type="curve"/>
      <point x="581" y="710"/>
      <point x="693" y="668"/>
      <point x="772" y="627" type="curve"/>
      <point x="756" y="580"/>
      <point x="742" y="534"/>
      <point x="732" y="487" type="curve"/>
      <point x="701" y="486" type="line"/>
      <point x="669" y="590"/>
      <point x="579" y="670"/>
      <point x="438" y="670" type="curve"/>
      <point x="268" y="670"/>
      <point x="163" y="539"/>
      <point x="163" y="350" type="curve"/>
      <point x="163" y="190"/>
      <point x="257" y="35"/>
    </contour>
  </outline>
</glyph>
<glyph name="D" format="1">
  <advance width="783"/>
  <unicode hex="0044"/>
  <outline>
    <contour>
      <point x="367" y="710" type="curve"/>
      <point x="286" y="710"/>
      <point x="201" y="697"/>
      <point x="141" y="698" type="curve"/>
      <point x="45" y="699" type="line"/>
      <point x="40" y="662" type="line"/>
      <point x="80" y="657"/>
      <point x="100" y="640"/>
      <point x="101" y="600" type="curve"/>
      <point x="104" y="489"/>
      <point x="106" y="249"/>
      <point x="97" y="122" type="curve"/>
      <point x="94" y="79"/>
      <point x="83" y="59"/>
      <point x="45" y="28" type="curve"/>
      <point x="59" y="-6" type="line"/>
      <point x="89" y="-1"/>
      <point x="121" y="10"/>
      <point x="171" y="10" type="curve"/>
      <point x="216" y="10"/>
      <point x="315" y="-10"/>
      <point x="373" y="-10" type="curve"/>
      <point x="583" y="-10"/>
      <point x="747" y="140"/>
      <point x="747" y="350" type="curve"/>
      <point x="747" y="540"/>
      <point x="607" y="710"/>
    </contour>
    <contour>
      <point x="377" y="32" type="curve"/>
      <point x="266" y="32"/>
      <point x="205" y="74"/>
      <point x="201" y="171" type="curve"/>
      <point x="195" y="307"/>
      <point x="194" y="459"/>
      <point x="199" y="555" type="curve"/>
      <point x="203" y="634"/>
      <point x="198" y="670"/>
      <point x="303" y="670" type="curve"/>
      <point x="502" y="670"/>
      <point x="640" y="510"/>
      <point x="640" y="310" type="curve"/>
      <point x="640" y="150"/>
      <point x="567" y="32"/>
    </contour>
  </outline>
</glyph>
<glyph name="E" format="1">
  <advance width="856"/>
  <unicode hex="0045"/>
  <outline>
    <contour>
      <point x="15" y="34" type="curve"/>
      <point x="15" y="-6" type="line"/>
      <point x="65" y="-3"/>
      <point x="135" y="0"/>
      <point x="195" y="0" type="curve"/>
      <point x="363" y="0"/>
      <point x="574" y="-2"/>
      <point x="718" y="-4" type="curve"/>
      <point x="825" y="143" type="line"/>
      <point x="806" y="165" type="line"/>
      <point x="698" y="78"/>
      <point x="556" y="45"/>
      <point x="380" y="45" type="curve"/>
      <point x="309" y="45"/>
      <point x="272" y="59"/>
      <point x="245" y="61" type="curve"/>
      <point x="245" y="298" type="line"/>
      <point x="470" y="298" type="line" smooth="yes"/>
      <point x="562" y="298"/>
      <point x="572" y="256"/>
      <point x="590" y="147" type="curve"/>
      <point x="634" y="147" type="line"/>
      <point x="619" y="241"/>
      <point x="611" y="347"/>
      <point x="652" y="440" type="curve"/>
      <point x="613" y="457" type="line"/>
      <point x="573" y="377"/>
      <point x="573" y="353"/>
      <point x="502" y="353" type="curve"/>
      <point x="245" y="353" type="line"/>
      <point x="245" y="578" type="line" smooth="yes"/>
      <point x="245" y="641"/>
      <point x="261" y="660"/>
      <point x="350" y="660" type="curve"/>
      <point x="512" y="660"/>
      <point x="635" y="656"/>
      <point x="646" y="513" type="curve"/>
      <point x="685" y="513" type="line"/>
      <point x="684" y="570"/>
      <point x="703" y="636"/>
      <point x="741" y="685" type="curve"/>
      <point x="735" y="705" type="line"/>
      <point x="584" y="701"/>
      <point x="345" y="700"/>
      <point x="194" y="700" type="curve"/>
      <point x="154" y="700"/>
      <point x="85" y="701"/>
      <point x="45" y="703" type="curve"/>
      <point x="45" y="663" type="line"/>
      <point x="107" y="646"/>
      <point x="145" y="635"/>
      <point x="145" y="573" type="curve"/>
      <point x="145" y="120" type="line" smooth="yes"/>
      <point x="145" y="73"/>
      <point x="96" y="55"/>
    </contour>
  </outline>
</glyph>
<glyph name="F" format="1">
  <advance width="674"/>
  <unicode hex="0046"/>
  <outline>
    <contour>
      <point x="40" y="30" type="curve"/>
      <point x="41" y="-5" type="line"/>
      <point x="135" y="-1"/>
      <point x="230" y="-1"/>
      <point x="324" y="-5" type="curve"/>
      <point x="324" y="30" type="line"/>
      <point x="266" y="48"/>
      <point x="224" y="50"/>
      <point x="224" y="115" type="curve"/>
      <point x="224" y="300" type="line"/>
      <point x="421" y="300" type="line" smooth="yes"/>
      <point x="511" y="300"/>
      <point x="517" y="278"/>
      <point x="533" y="209" type="curve"/>
      <point x="573" y="209" type="line"/>
      <point x="566" y="279"/>
      <point x="565" y="351"/>
      <point x="573" y="427" type="curve"/>
      <point x="533" y="427" type="line"/>
      <point x="519" y="360"/>
      <point x="503" y="340"/>
      <point x="421" y="340" type="curve"/>
      <point x="224" y="340" type="line"/>
      <point x="224" y="548" type="line" smooth="yes"/>
      <point x="224" y="631"/>
      <point x="262" y="657"/>
      <point x="331" y="657" type="curve"/>
      <point x="410" y="657" type="line" smooth="yes"/>
      <point x="546" y="657"/>
      <point x="597" y="583"/>
      <point x="604" y="503" type="curve"/>
      <point x="644" y="503" type="line"/>
      <point x="644" y="565"/>
      <point x="646" y="625"/>
      <point x="664" y="686" type="curve"/>
      <point x="654" y="700" type="line"/>
      <point x="503" y="697"/>
      <point x="324" y="700"/>
      <point x="173" y="700" type="curve"/>
      <point x="143" y="700"/>
      <point x="74" y="701"/>
      <point x="44" y="703" type="curve"/>
      <point x="44" y="663" type="line"/>
      <point x="114" y="653"/>
      <point x="124" y="620"/>
      <point x="124" y="560" type="curve"/>
      <point x="124" y="115" type="line" smooth="yes"/>
      <point x="124" y="55"/>
      <point x="91" y="47"/>
    </contour>
  </outline>
</glyph>
<glyph name="H" format="1">
  <advance width="962"/>
  <unicode hex="0048"/>
  <outline>
    <contour>
      <point x="66" y="-4" type="curve"/>
      <point x="66" y="36" type="line"/>
      <point x="78" y="49"/>
      <point x="125" y="59"/>
      <point x="125" y="112" type="curve"/>
      <point x="125" y="588" type="line" smooth="yes"/>
      <point x="125" y="641"/>
      <point x="78" y="651"/>
      <point x="40" y="664" type="curve"/>
      <point x="40" y="704" type="line"/>
      <point x="115" y="700"/>
      <point x="199" y="700"/>
      <point x="274" y="704" type="curve"/>
      <point x="274" y="664" type="line"/>
      <point x="259" y="646"/>
      <point x="227" y="634"/>
      <point x="227" y="593" type="curve"/>
      <point x="225" y="112" type="line" smooth="yes"/>
      <point x="225" y="59"/>
      <point x="272" y="49"/>
      <point x="320" y="36" type="curve"/>
      <point x="320" y="-4" type="line"/>
      <point x="221" y="1"/>
      <point x="126" y="1"/>
    </contour>
    <contour>
      <point x="668" y="-4" type="curve"/>
      <point x="668" y="36" type="line"/>
      <point x="696" y="49"/>
      <point x="743" y="59"/>
      <point x="743" y="112" type="curve"/>
      <point x="743" y="588" type="line" smooth="yes"/>
      <point x="743" y="641"/>
      <point x="726" y="651"/>
      <point x="688" y="664" type="curve"/>
      <point x="688" y="704" type="line"/>
      <point x="775" y="700"/>
      <point x="822" y="700"/>
      <point x="919" y="704" type="curve"/>
      <point x="919" y="664" type="line"/>
      <point x="871" y="651"/>
      <point x="843" y="641"/>
      <point x="843" y="588" type="curve"/>
      <point x="845" y="107" type="line" smooth="yes"/>
      <point x="845" y="66"/>
      <point x="877" y="54"/>
      <point x="922" y="36" type="curve"/>
      <point x="922" y="-4" type="line"/>
      <point x="817" y="1"/>
      <point x="733" y="1"/>
    </contour>
    <contour>
      <point x="758" y="348" type="line"/>
      <point x="194" y="351" type="line"/>
      <point x="194" y="399" type="line"/>
      <point x="758" y="396" type="line"/>
    </contour>
  </outline>
</glyph>
<glyph name="J" format="1">
  <advance width="588"/>
  <unicode hex="004A"/>
  <outline>
    <contour>
      <point x="67" y="49" type="curve"/>
      <point x="99" y="72" type="line"/>
      <point x="119" y="36"/>
      <point x="183" y="-40"/>
      <point x="276" y="-40" type="curve"/>
      <point x="357" y="-40"/>
      <point x="398" y="13"/>
      <point x="398" y="97" type="curve"/>
      <point x="398" y="181"/>
      <point x="352" y="212"/>
      <point x="352" y="354" type="curve"/>
      <point x="352" y="432"/>
      <point x="384" y="525"/>
      <point x="402" y="601" type="curve"/>
      <point x="324" y="606"/>
      <point x="125" y="651"/>
      <point x="79" y="602" type="curve"/>
      <point x="55" y="615" type="line"/>
      <point x="105" y="719" type="line"/>
      <point x="243" y="719"/>
      <point x="391" y="665"/>
      <point x="483" y="717" type="curve"/>
      <point x="484" y="717" type="line"/>
      <point x="501" y="704" type="line"/>
      <point x="458" y="604"/>
      <point x="459" y="444"/>
      <point x="459" y="360" type="curve"/>
      <point x="459" y="234"/>
      <point x="485" y="161"/>
      <point x="485" y="89" type="curve"/>
      <point x="485" y="4"/>
      <point x="389" y="-88"/>
      <point x="275" y="-88" type="curve"/>
      <point x="167" y="-88"/>
      <point x="99" y="-11"/>
    </contour>
    <contour>
      <point x="246" y="362" type="curve"/>
      <point x="246" y="368" type="line"/>
      <point x="362" y="425" type="line"/>
      <point x="362" y="298" type="line"/>
      <point x="336" y="333"/>
      <point x="295" y="353"/>
    </contour>
    <contour>
      <point x="256" y="255" type="curve"/>
      <point x="256" y="258" type="line"/>
      <point x="365" y="322" type="line"/>
      <point x="390" y="154" type="line"/>
      <point x="372" y="221"/>
      <point x="315" y="235"/>
    </contour>
  </outline>
</glyph>
<glyph name="M" format="1">
  <advance width="951"/>
  <unicode hex="004D"/>
  <outline>
    <contour>
      <point x="861" y="88" type="curve"/>
      <point x="834" y="591" type="line" smooth="yes"/>
      <point x="831" y="641"/>
      <point x="834" y="657"/>
      <point x="911" y="668" type="curve"/>
      <point x="911" y="703" type="line"/>
      <point x="789" y="699"/>
      <point x="721" y="699"/>
      <point x="616" y="703" type="curve"/>
      <point x="613" y="668" type="line"/>
      <point x="721" y="652"/>
      <point x="715" y="631"/>
      <point x="693" y="588" type="curve"/>
      <point x="463" y="141" type="line"/>
      <point x="497" y="149" type="line"/>
      <point x="262" y="582" type="line" smooth="yes"/>
      <point x="239" y="624"/>
      <point x="253" y="637"/>
      <point x="345" y="647" type="curve"/>
      <point x="345" y="682" type="line"/>
      <point x="224" y="677"/>
      <point x="166" y="677"/>
      <point x="40" y="682" type="curve"/>
      <point x="40" y="647" type="line"/>
      <point x="130" y="636"/>
      <point x="130" y="625"/>
      <point x="126" y="527" type="curve"/>
      <point x="110" y="166" type="line" smooth="yes"/>
      <point x="105" y="51"/>
      <point x="105" y="43"/>
      <point x="58" y="32" type="curve"/>
      <point x="58" y="-3" type="line"/>
      <point x="122" y="0"/>
      <point x="229" y="3"/>
      <point x="333" y="-3" type="curve"/>
      <point x="333" y="32" type="line"/>
      <point x="231" y="47"/>
      <point x="212" y="34"/>
      <point x="215" y="141" type="curve"/>
      <point x="229" y="579" type="line"/>
      <point x="216" y="565" type="line"/>
      <point x="492" y="50" type="line"/>
      <point x="515" y="50" type="line"/>
      <point x="608" y="217"/>
      <point x="686" y="383"/>
      <point x="801" y="550" type="curve"/>
      <point x="783" y="576" type="line"/>
      <point x="790" y="153" type="line" smooth="yes"/>
      <point x="792" y="57"/>
      <point x="794" y="49"/>
      <point x="668" y="31" type="curve"/>
      <point x="669" y="-3" type="line"/>
      <point x="756" y="0"/>
      <point x="837" y="0"/>
      <point x="899" y="-3" type="curve"/>
      <point x="899" y="32" type="line"/>
      <point x="864" y="45"/>
      <point x="863" y="58"/>
    </contour>
  </outline>
</glyph>
<glyph name="O" format="1">
  <advance width="830"/>
  <unicode hex="004F"/>
  <outline>
    <contour>
      <point x="409" y="670" type="curve"/>
      <point x="238" y="670"/>
      <point x="164" y="525"/>
      <point x="164" y="374" type="curve"/>
      <point x="164" y="200"/>
      <point x="255" y="30"/>
      <point x="418" y="30" type="curve"/>
      <point x="590" y="30"/>
      <point x="666" y="178"/>
      <point x="666" y="329" type="curve"/>
      <point x="666" y="503"/>
      <point x="571" y="670"/>
    </contour>
    <contour>
      <point x="412" y="-10" type="curve"/>
      <point x="209" y="-10"/>
      <point x="45" y="142"/>
      <point x="45" y="352" type="curve"/>
      <point x="45" y="554"/>
      <point x="214" y="710"/>
      <point x="418" y="710" type="curve"/>
      <point x="621" y="710"/>
      <point x="785" y="558"/>
      <point x="785" y="348" type="curve"/>
      <point x="785" y="146"/>
      <point x="616" y="-10"/>
    </contour>
  </outline>
</glyph>
<glyph name="Q" format="1">
  <advance width="1044"/>
  <unicode hex="0051"/>
  <outline>
    <contour>
      <point x="451" y="15" type="curve"/>
      <point x="609" y="62" type="line"/>
      <point x="715" y="-5"/>
      <point x="891" y="-12"/>
      <point x="1036" y="79" type="curve"/>
      <point x="1054" y="56" type="line"/>
      <point x="980" y="0"/>
      <point x="935" y="-27"/>
      <point x="893" y="-52" type="curve"/>
      <point x="773" y="-82"/>
      <point x="593" y="-66"/>
    </contour>
    <component base="O" xScale="0.9945" xyScale="0.1045" yScale="0.9945" yxScale="-0.1045" xOffset="39" yOffset="-42"/>
  </outline>
</glyph>
<glyph name="R" format="1">
  <advance width="892"/>
  <unicode hex="0052"/>
  <outline>
    <contour>
      <point x="42" y="702" type="curve"/>
      <point x="40" y="662" type="line"/>
      <point x="76" y="656"/>
      <point x="109" y="644"/>
      <point x="109" y="598" type="curve"/>
      <point x="109" y="577"/>
      <point x="110" y="130"/>
      <point x="107" y="82" type="curve"/>
      <point x="106" y="63"/>
      <point x="89" y="38"/>
      <point x="47" y="38" type="curve"/>
      <point x="50" y="-2" type="line"/>
      <point x="127" y="3"/>
      <point x="214" y="3"/>
      <point x="291" y="-2" type="curve"/>
      <point x="290" y="38" type="line"/>
      <point x="259" y="40"/>
      <point x="212" y="54"/>
      <point x="212" y="104" type="curve"/>
      <point x="212" y="312" type="line"/>
      <point x="306" y="311" type="line" smooth="yes"/>
      <point x="415" y="310"/>
      <point x="482" y="205"/>
      <point x="540" y="138" type="curve"/>
      <point x="597" y="72"/>
      <point x="661" y="-11"/>
      <point x="780" y="-11" type="curve"/>
      <point x="823" y="-11"/>
      <point x="861" y="-4"/>
      <point x="893" y="12" type="curve"/>
      <point x="885" y="33" type="line"/>
      <point x="755" y="19"/>
      <point x="730" y="77"/>
      <point x="652" y="162" type="curve"/>
      <point x="568" y="253"/>
      <point x="452" y="339"/>
      <point x="369" y="338" type="curve"/>
      <point x="370" y="325" type="line"/>
      <point x="449" y="348"/>
      <point x="548" y="412"/>
      <point x="550" y="509" type="curve"/>
      <point x="553" y="637"/>
      <point x="470" y="700"/>
      <point x="262" y="700" type="curve"/>
      <point x="196" y="700"/>
      <point x="106" y="698"/>
    </contour>
    <contour>
      <point x="210" y="342" type="line"/>
      <point x="210" y="657" type="line"/>
      <point x="376" y="665"/>
      <point x="446" y="572"/>
      <point x="444" y="486" type="curve"/>
      <point x="442" y="383"/>
      <point x="378" y="342"/>
      <point x="257" y="342" type="curve"/>
    </contour>
  </outline>
</glyph>
<glyph name="U" format="1">
  <advance width="776"/>
  <unicode hex="0055"/>
  <outline>
    <contour>
      <point x="684" y="544" type="curve"/>
      <point x="684" y="471"/>
      <point x="687" y="293"/>
      <point x="684" y="212" type="curve"/>
      <point x="679" y="73"/>
      <point x="547" y="-10"/>
      <point x="390" y="-10" type="curve"/>
      <point x="160" y="-10"/>
      <point x="78" y="133"/>
      <point x="81" y="175" type="curve"/>
      <point x="85" y="314"/>
      <point x="81" y="432"/>
      <point x="81" y="571" type="curve"/>
      <point x="81" y="616"/>
      <point x="77" y="643"/>
      <point x="36" y="664" type="curve"/>
      <point x="36" y="704" type="line"/>
      <point x="106" y="701"/>
      <point x="208" y="702"/>
      <point x="235" y="704" type="curve"/>
      <point x="235" y="664" type="line"/>
      <point x="200" y="644"/>
      <point x="195" y="614"/>
      <point x="195" y="561" type="curve"/>
      <point x="195" y="232" type="line" smooth="yes"/>
      <point x="195" y="103"/>
      <point x="269" y="34"/>
      <point x="405" y="34" type="curve"/>
      <point x="536" y="34"/>
      <point x="629" y="96"/>
      <point x="629" y="233" type="curve"/>
      <point x="629" y="548" type="line" smooth="yes"/>
      <point x="629" y="624"/>
      <point x="630" y="646"/>
      <point x="587" y="667" type="curve"/>
      <point x="586" y="702" type="line"/>
      <point x="643" y="700"/>
      <point x="697" y="701"/>
      <point x="728" y="702" type="curve"/>
      <point x="728" y="667" type="line"/>
      <point x="693" y="646"/>
      <point x="684" y="624"/>
    </contour>
  </outline>
</glyph>
<glyph name="X" format="1">
  <advance width="734"/>
  <unicode hex="0058"/>
  <outline>
    <contour>
      <point x="549" y="588" type="curve"/>
      <point x="376" y="399" type="line"/>
      <point x="405" y="351" type="line"/>
      <point x="642" y="601" type="line" smooth="yes"/>
      <point x="667" y="628"/>
      <point x="690" y="642"/>
      <point x="708" y="651" type="curve"/>
      <point x="729" y="662" type="line"/>
      <point x="729" y="700" type="line"/>
      <point x="499" y="700" type="line"/>
      <point x="499" y="665" type="line"/>
      <point x="524" y="659" type="line" smooth="yes"/>
      <point x="560" y="650"/>
      <point x="590" y="633"/>
    </contour>
    <contour>
      <point x="167" y="75" type="curve"/>
      <point x="370" y="313" type="line"/>
      <point x="342" y="363" type="line"/>
      <point x="69" y="81" type="line" smooth="yes"/>
      <point x="56" y="68"/>
      <point x="44" y="54"/>
      <point x="5" y="41" type="curve"/>
      <point x="5" y="0" type="line"/>
      <point x="208" y="0" type="line"/>
      <point x="208" y="38" type="line"/>
      <point x="169" y="49"/>
      <point x="152" y="57"/>
    </contour>
    <contour>
      <point x="78" y="610" type="curve"/>
      <point x="496" y="97" type="line" smooth="yes"/>
      <point x="518" y="70"/>
      <point x="521" y="52"/>
      <point x="468" y="32" type="curve"/>
      <point x="468" y="0" type="line"/>
      <point x="718" y="0" type="line"/>
      <point x="718" y="35" type="line"/>
      <point x="696" y="47"/>
      <point x="670" y="68"/>
      <point x="653" y="88" type="curve"/>
      <point x="218" y="616" type="line" smooth="yes"/>
      <point x="203" y="634"/>
      <point x="213" y="651"/>
      <point x="228" y="655" type="curve"/>
      <point x="263" y="665" type="line"/>
      <point x="263" y="700" type="line"/>
      <point x="5" y="700" type="line"/>
      <point x="5" y="662" type="line"/>
      <point x="24" y="656"/>
      <point x="46" y="649"/>
    </contour>
    <contour>
      <point x="377" y="25" type="move" name="bottom"/>
    </contour>
    <contour>
      <point x="377" y="722" type="move" name="top"/>
    </contour>
  </outline>
</glyph>
<glyph name="Y" format="1">
  <advance width="714"/>
  <unicode hex="0059"/>
  <outline>
    <contour>
      <point x="190" y="35" type="curve"/>
      <point x="190" y="0" type="line"/>
      <point x="506" y="0" type="line"/>
      <point x="506" y="35" type="line"/>
      <point x="466" y="46"/>
      <point x="404" y="41"/>
      <point x="405" y="139" type="curve"/>
      <point x="406" y="300" type="line"/>
      <point x="651" y="626" type="line" smooth="yes"/>
      <point x="670" y="652"/>
      <point x="688" y="658"/>
      <point x="709" y="671" type="curve"/>
      <point x="709" y="700" type="line"/>
      <point x="485" y="700" type="line"/>
      <point x="485" y="671" type="line"/>
      <point x="534" y="664" type="line" smooth="yes"/>
      <point x="561" y="660"/>
      <point x="577" y="643"/>
      <point x="561" y="619" type="curve"/>
      <point x="362" y="331" type="line"/>
      <point x="408" y="315" type="line"/>
      <point x="189" y="616" type="line" smooth="yes"/>
      <point x="175" y="636"/>
      <point x="186" y="656"/>
      <point x="205" y="660" type="curve"/>
      <point x="260" y="671" type="line"/>
      <point x="260" y="700" type="line"/>
      <point x="5" y="700" type="line"/>
      <point x="5" y="671" type="line"/>
      <point x="36" y="647"/>
      <point x="52" y="638"/>
      <point x="78" y="601" type="curve"/>
      <point x="296" y="291" type="line"/>
      <point x="294" y="139" type="line" smooth="yes"/>
      <point x="293" y="45"/>
      <point x="239" y="46"/>
    </contour>
  </outline>
</glyph>
<glyph name="Z" format="1">
  <advance width="756"/>
  <unicode hex="005A"/>
  <outline>
    <contour>
      <point x="578" y="700" type="curve"/>
      <point x="100" y="700" type="line"/>
      <point x="13" y="560" type="line"/>
      <point x="48" y="546" type="line"/>
      <point x="100" y="592"/>
      <point x="165" y="639"/>
      <point x="228" y="640" type="curve"/>
      <point x="593" y="648" type="line"/>
      <point x="577" y="672" type="line"/>
      <point x="10" y="15" type="line"/>
      <point x="43" y="-10" type="line"/>
      <point x="57" y="-4"/>
      <point x="70" y="0"/>
      <point x="86" y="0" type="curve"/>
      <point x="272" y="0"/>
      <point x="469" y="0"/>
      <point x="655" y="-10" type="curve"/>
      <point x="746" y="164" type="line"/>
      <point x="710" y="173" type="line"/>
      <point x="670" y="125"/>
      <point x="593" y="60"/>
      <point x="481" y="58" type="curve"/>
      <point x="139" y="52" type="line"/>
      <point x="155" y="22" type="line"/>
      <point x="637" y="586" type="line" smooth="yes"/>
      <point x="659" y="612"/>
      <point x="684" y="638"/>
      <point x="717" y="662" type="curve"/>
      <point x="705" y="706" type="line"/>
      <point x="663" y="701"/>
      <point x="623" y="700"/>
    </contour>
    <contour>
      <point x="350" y="25" type="move" name="bottom"/>
    </contour>
    <contour>
      <point x="350" y="722" type="move" name="top"/>
    </contour>
  </outline>
</glyph>
<glyph name="k" format="1">
  <advance width="600"/>
  <unicode hex="006B"/>
  <outline>
    <contour>
      <point x="80" y="649" type="curve"/>
      <point x="80" y="679" type="line"/>
      <point x="120" y="685"/>
      <point x="194" y="701"/>
      <point x="242" y="710" type="curve"/>
      <point x="249" y="704" type="line"/>
      <point x="245" y="665"/>
      <point x="243" y="594"/>
      <point x="241" y="550" type="curve"/>
      <point x="234" y="397"/>
      <point x="234" y="243"/>
      <point x="234" y="90" type="curve"/>
      <point x="234" y="55"/>
      <point x="254" y="41"/>
      <point x="296" y="27" type="curve"/>
      <point x="296" y="-3" type="line"/>
      <point x="252" y="-1"/>
      <point x="152" y="0"/>
      <point x="91" y="-3" type="curve"/>
      <point x="92" y="27" type="line"/>
      <point x="134" y="41"/>
      <point x="146" y="55"/>
      <point x="147" y="90" type="curve"/>
      <point x="153" y="292"/>
      <point x="151" y="449"/>
      <point x="146" y="586" type="curve"/>
      <point x="144" y="636"/>
      <point x="107" y="646"/>
    </contour>
    <contour>
      <point x="198" y="205" type="line"/>
      <point x="198" y="237" type="line"/>
      <point x="352" y="237" type="line"/>
      <point x="352" y="205" type="line"/>
    </contour>
    <contour>
      <point x="442" y="0" type="curve"/>
      <point x="314" y="205" type="line"/>
      <point x="374" y="248" type="line"/>
      <point x="501" y="70" type="line" smooth="yes"/>
      <point x="518" y="46"/>
      <point x="545" y="24"/>
      <point x="566" y="14" type="curve"/>
      <point x="559" y="-12" type="line"/>
      <point x="520" y="-6"/>
      <point x="481" y="-2"/>
    </contour>
    <contour>
      <point x="333" y="210" type="curve"/>
      <point x="314" y="226" type="line"/>
      <point x="367" y="288" type="line" smooth="yes"/>
      <point x="390" y="314"/>
      <point x="403" y="354"/>
      <point x="325" y="375" type="curve"/>
      <point x="326" y="400" type="line"/>
      <point x="526" y="401" type="line"/>
      <point x="525" y="376" type="line"/>
      <point x="460" y="341"/>
      <point x="398" y="265"/>
    </contour>
  </outline>
</glyph>
<glyph name="l" format="1">
  <advance width="231"/>
  <unicode hex="006C"/>
  <outline>
    <contour>
      <point x="20" y="689" type="curve"/>
      <point x="20" y="659" type="line"/>
      <point x="47" y="656"/>
      <point x="54" y="636"/>
      <point x="56" y="586" type="curve"/>
      <point x="61" y="449"/>
      <point x="61" y="302"/>
      <point x="58" y="150" type="curve"/>
      <point x="56" y="67"/>
      <point x="48" y="17"/>
      <point x="49" y="9" type="curve"/>
      <point x="50" y="-2" type="line"/>
      <point x="68" y="-1"/>
      <point x="93" y="0"/>
      <point x="111" y="0" type="curve"/>
      <point x="131" y="0"/>
      <point x="162" y="-1"/>
      <point x="206" y="-3" type="curve"/>
      <point x="206" y="32" type="line"/>
      <point x="164" y="46"/>
      <point x="144" y="55"/>
      <point x="144" y="90" type="curve"/>
      <point x="144" y="243"/>
      <point x="145" y="397"/>
      <point x="151" y="550" type="curve"/>
      <point x="153" y="594"/>
      <point x="155" y="665"/>
      <point x="159" y="704" type="curve"/>
      <point x="152" y="710" type="line"/>
      <point x="104" y="701"/>
      <point x="60" y="695"/>
    </contour>
  </outline>
</glyph>
<glyph name="q" format="1">
  <advance width="534"/>
  <unicode hex="0071"/>
  <outline>
    <contour>
      <point x="40" y="201" type="curve"/>
      <point x="40" y="71"/>
      <point x="127" y="-10"/>
      <point x="277" y="-10" type="curve"/>
      <point x="286" y="-10"/>
      <point x="345" y="26"/>
      <point x="400" y="49" type="curve"/>
      <point x="394" y="-207" type="line" smooth="yes"/>
      <point x="393" y="-238"/>
      <point x="376" y="-244"/>
      <point x="349" y="-253" type="curve"/>
      <point x="349" y="-283" type="line"/>
      <point x="384" y="-282"/>
      <point x="425" y="-280"/>
      <point x="444" y="-280" type="curve"/>
      <point x="461" y="-280"/>
      <point x="508" y="-281"/>
      <point x="523" y="-283" type="curve"/>
      <point x="523" y="-253" type="line"/>
      <point x="500" y="-242"/>
      <point x="491" y="-231"/>
      <point x="489" y="-195" type="curve"/>
      <point x="484" y="-106"/>
      <point x="486" y="163"/>
      <point x="492" y="250" type="curve"/>
      <point x="497" y="326"/>
      <point x="508" y="370"/>
      <point x="524" y="422" type="curve"/>
      <point x="495" y="431" type="line"/>
      <point x="475" y="404"/>
      <point x="451" y="378"/>
      <point x="424" y="342" type="curve"/>
      <point x="366" y="382"/>
      <point x="323" y="410"/>
      <point x="252" y="410" type="curve"/>
      <point x="162" y="410"/>
      <point x="40" y="331"/>
    </contour>
    <contour>
      <point x="140" y="211" type="curve"/>
      <point x="140" y="290"/>
      <point x="189" y="360"/>
      <point x="272" y="360" type="curve"/>
      <point x="379" y="360"/>
      <point x="418" y="241"/>
      <point x="400" y="119" type="curve"/>
      <point x="400" y="118" type="line"/>
      <point x="355" y="60"/>
      <point x="311" y="45"/>
      <point x="288" y="45" type="curve"/>
      <point x="188" y="45"/>
      <point x="140" y="120"/>
    </contour>
  </outline>
</glyph>
<glyph name="r" format="1">
  <advance width="350"/>
  <unicode hex="0072"/>
  <outline>
    <contour>
      <point x="156" y="311" type="curve"/>
      <point x="153" y="264" type="line"/>
      <point x="204" y="325"/>
      <point x="240" y="306"/>
      <point x="281" y="268" type="curve"/>
      <point x="285" y="268" type="line"/>
      <point x="345" y="365" type="line"/>
      <point x="323" y="381"/>
      <point x="252" y="409"/>
      <point x="238" y="409" type="curve"/>
      <point x="209" y="369"/>
      <point x="193" y="350"/>
    </contour>
    <contour>
      <point x="158" y="324" type="curve"/>
      <point x="163" y="399" type="line"/>
      <point x="144" y="409" type="line"/>
      <point x="100" y="393"/>
      <point x="64" y="377"/>
      <point x="25" y="363" type="curve"/>
      <point x="25" y="333" type="line"/>
      <point x="56" y="327"/>
      <point x="64" y="321"/>
      <point x="64" y="282" type="curve"/>
      <point x="64" y="212"/>
      <point x="62" y="105"/>
      <point x="59" y="78" type="curve"/>
      <point x="56" y="53"/>
      <point x="51" y="40"/>
      <point x="36" y="27" type="curve"/>
      <point x="36" y="-3" type="line"/>
      <point x="56" y="-1"/>
      <point x="90" y="0"/>
      <point x="121" y="0" type="curve"/>
      <point x="147" y="0"/>
      <point x="179" y="-1"/>
      <point x="207" y="-3" type="curve"/>
      <point x="207" y="27" type="line"/>
      <point x="181" y="40"/>
      <point x="163" y="43"/>
      <point x="160" y="76" type="curve"/>
      <point x="157" y="106"/>
      <point x="156" y="288"/>
    </contour>
  </outline>
</glyph>
<glyph name="s" format="1">
  <advance width="395"/>
  <unicode hex="0073"/>
  <outline>
    <contour>
      <point x="39" y="-1" type="line"/>
      <point x="69" y="44" type="line"/>
      <point x="113" y="11"/>
      <point x="169" y="-10"/>
      <point x="228" y="-10" type="curve"/>
      <point x="295" y="-10"/>
      <point x="370" y="35"/>
      <point x="370" y="118" type="curve"/>
      <point x="370" y="182"/>
      <point x="325" y="229"/>
      <point x="233" y="245" type="curve"/>
      <point x="148" y="260"/>
      <point x="85" y="273"/>
      <point x="85" y="311" type="curve"/>
      <point x="85" y="340"/>
      <point x="116" y="358"/>
      <point x="158" y="358" type="curve"/>
      <point x="212" y="358"/>
      <point x="258" y="333"/>
      <point x="300" y="287" type="curve"/>
      <point x="327" y="287" type="line"/>
      <point x="375" y="394" type="line"/>
      <point x="353" y="408" type="line"/>
      <point x="338" y="398"/>
      <point x="329" y="389"/>
      <point x="313" y="389" type="curve"/>
      <point x="280" y="389"/>
      <point x="245" y="410"/>
      <point x="190" y="410" type="curve"/>
      <point x="100" y="410"/>
      <point x="31" y="359"/>
      <point x="31" y="289" type="curve"/>
      <point x="31" y="221"/>
      <point x="78" y="178"/>
      <point x="171" y="164" type="curve"/>
      <point x="258" y="151"/>
      <point x="298" y="132"/>
      <point x="298" y="88" type="curve"/>
      <point x="298" y="46"/>
      <point x="264" y="27"/>
      <point x="227" y="27" type="curve"/>
      <point x="170" y="27"/>
      <point x="92" y="81"/>
      <point x="83" y="164" type="curve"/>
      <point x="56" y="170" type="line"/>
      <point x="15" y="7" type="line"/>
    </contour>
  </outline>
</glyph>
<glyph name="t" format="1">
  <advance width="306"/>
  <unicode hex="0074"/>
  <outline>
    <contour>
      <point x="30" y="330" type="line"/>
      <point x="62" y="330" type="line"/>
      <point x="62" y="103" type="line" smooth="yes"/>
      <point x="62" y="37"/>
      <point x="108" y="-11"/>
      <point x="161" y="-11" type="curve"/>
      <point x="209" y="-11"/>
      <point x="265" y="8"/>
      <point x="286" y="19" type="curve"/>
      <point x="281" y="50" type="line"/>
      <point x="166" y="33"/>
      <point x="156" y="62"/>
      <point x="151" y="155" type="curve"/>
      <point x="149" y="190"/>
      <point x="150" y="418"/>
      <point x="156" y="503" type="curve"/>
      <point x="125" y="503" type="line"/>
      <point x="101" y="453"/>
      <point x="69" y="408"/>
      <point x="30" y="370" type="curve"/>
    </contour>
    <contour>
      <point x="142" y="400" type="line"/>
      <point x="150" y="330" type="line"/>
      <point x="283" y="330" type="line"/>
      <point x="283" y="400" type="line"/>
    </contour>
  </outline>
</glyph>
<glyph name="v" format="1">
  <advance width="472"/>
  <unicode hex="0076"/>
  <outline>
    <contour>
      <point x="204" y="0" type="curve"/>
      <point x="268" y="0" type="line"/>
      <point x="310" y="95"/>
      <point x="345" y="190"/>
      <point x="400" y="285" type="curve"/>
      <point x="419" y="318"/>
      <point x="438" y="354"/>
      <point x="467" y="372" type="curve"/>
      <point x="467" y="402" type="line"/>
      <point x="413" y="400"/>
      <point x="352" y="399"/>
      <point x="307" y="402" type="curve"/>
      <point x="307" y="372" type="line"/>
      <point x="347" y="366"/>
      <point x="370" y="343"/>
      <point x="351" y="296" type="curve"/>
      <point x="254" y="56" type="line"/>
      <point x="269" y="56" type="line"/>
      <point x="164" y="300" type="line" smooth="yes"/>
      <point x="146" y="342"/>
      <point x="162" y="356"/>
      <point x="192" y="373" type="curve"/>
      <point x="182" y="402" type="line"/>
      <point x="130" y="389"/>
      <point x="61" y="374"/>
      <point x="5" y="362" type="curve"/>
      <point x="13" y="332" type="line"/>
      <point x="31" y="315"/>
      <point x="49" y="300"/>
      <point x="71" y="263" type="curve"/>
      <point x="124" y="175"/>
      <point x="170" y="88"/>
    </contour>
  </outline>
</glyph>
<glyph name="w" format="1">
  <advance width="770"/>
  <unicode hex="0077"/>
  <outline>
    <contour>
      <point x="196" y="0" type="line"/>
      <point x="260" y="0" type="line"/>
      <point x="405" y="285" type="line" smooth="yes"/>
      <point x="422" y="319"/>
      <point x="437" y="354"/>
      <point x="466" y="372" type="curve"/>
      <point x="466" y="402" type="line"/>
      <point x="412" y="400"/>
      <point x="351" y="399"/>
      <point x="286" y="402" type="curve"/>
      <point x="286" y="372" type="line"/>
      <point x="346" y="366"/>
      <point x="370" y="342"/>
      <point x="350" y="296" type="curve"/>
      <point x="246" y="56" type="line"/>
      <point x="261" y="56" type="line"/>
      <point x="166" y="300" type="line" smooth="yes"/>
      <point x="150" y="342"/>
      <point x="154" y="365"/>
      <point x="194" y="372" type="curve"/>
      <point x="194" y="402" type="line"/>
      <point x="132" y="399"/>
      <point x="71" y="398"/>
      <point x="5" y="402" type="curve"/>
      <point x="5" y="372" type="line"/>
      <point x="35" y="366"/>
      <point x="46" y="342"/>
      <point x="63" y="303" type="curve"/>
    </contour>
    <contour>
      <point x="495" y="0" type="line"/>
      <point x="559" y="0" type="line"/>
      <point x="704" y="285" type="line" smooth="yes"/>
      <point x="721" y="319"/>
      <point x="736" y="354"/>
      <point x="765" y="372" type="curve"/>
      <point x="765" y="402" type="line"/>
      <point x="711" y="400"/>
      <point x="650" y="399"/>
      <point x="585" y="402" type="curve"/>
      <point x="585" y="372" type="line"/>
      <point x="645" y="366"/>
      <point x="669" y="342"/>
      <point x="649" y="296" type="curve"/>
      <point x="545" y="56" type="line"/>
      <point x="560" y="56" type="line"/>
      <point x="465" y="300" type="line" smooth="yes"/>
      <point x="449" y="342"/>
      <point x="453" y="365"/>
      <point x="493" y="372" type="curve"/>
      <point x="493" y="402" type="line"/>
      <point x="431" y="399"/>
      <point x="370" y="398"/>
      <point x="304" y="402" type="curve"/>
      <point x="304" y="372" type="line"/>
      <point x="334" y="366"/>
      <point x="345" y="342"/>
      <point x="362" y="303" type="curve"/>
    </contour>
  </outline>
</glyph>
<glyph name="x" format="1">
  <advance width="555"/>
  <unicode hex="0078"/>
  <outline>
    <contour>
      <point x="152" y="401" type="curve"/>
      <point x="164" y="382"/>
      <point x="175" y="366"/>
      <point x="192" y="348" type="curve"/>
      <point x="276" y="260"/>
      <point x="372" y="159"/>
      <point x="444" y="85" type="curve"/>
      <point x="472" y="57"/>
      <point x="490" y="42"/>
      <point x="523" y="30" type="curve"/>
      <point x="523" y="0" type="line"/>
      <point x="478" y="1"/>
      <point x="427" y="1"/>
      <point x="382" y="0" type="curve"/>
      <point x="365" y="28"/>
      <point x="344" y="50"/>
      <point x="322" y="77" type="curve"/>
      <point x="255" y="158"/>
      <point x="135" y="281"/>
      <point x="64" y="344" type="curve"/>
      <point x="47" y="359"/>
      <point x="39" y="366"/>
      <point x="15" y="371" type="curve"/>
      <point x="15" y="401" type="line"/>
      <point x="61" y="400"/>
      <point x="106" y="400"/>
    </contour>
    <contour>
      <point x="16" y="9" type="curve"/>
      <point x="21" y="112" type="line"/>
      <point x="72" y="112" type="line"/>
      <point x="85" y="86"/>
      <point x="96" y="64"/>
      <point x="135" y="64" type="curve"/>
      <point x="215" y="64"/>
      <point x="410" y="277"/>
      <point x="410" y="327" type="curve"/>
      <point x="410" y="352"/>
      <point x="378" y="359"/>
      <point x="342" y="373" type="curve"/>
      <point x="342" y="403" type="line"/>
      <point x="420" y="401"/>
      <point x="479" y="401"/>
      <point x="533" y="403" type="curve"/>
      <point x="533" y="373" type="line"/>
      <point x="508" y="352"/>
      <point x="497" y="341"/>
      <point x="475" y="312" type="curve"/>
      <point x="397" y="212"/>
      <point x="204" y="-8"/>
      <point x="95" y="-8" type="curve"/>
      <point x="66" y="-8"/>
      <point x="43" y="-3"/>
    </contour>
  </outline>
</glyph>
<glyph name="o_macr" format="1">
  <advance width="468"/>
  <unicode hex="014D"/>
  <outline>
    <contour>
      <point x="98" y="518" type="curve"/>
      <point x="72" y="526" type="line"/>
      <point x="137" y="634" type="line"/>
      <point x="214" y="648"/>
      <point x="272" y="639"/>
      <point x="336" y="702" type="curve"/>
      <point x="365" y="699" type="line"/>
      <point x="280" y="548" type="line"/>
      <point x="219" y="543"/>
      <point x="142" y="550"/>
    </contour>
    <component base="o"/>
    <contour>
      <point x="234.092" y="395.343" type="move" name="_top"/>
    </contour>
    <contour>
      <point x="177.822" y="662.633" type="move" name="top"/>
    </contour>
  </outline>
</glyph>
<glyph name="u_macr" format="1">
  <advance width="478"/>
  <unicode hex="016B"/>
  <outline>
    <contour>
      <point x="139" y="524" type="curve"/>
      <point x="115" y="537" type="line"/>
      <point x="198" y="632" type="line"/>
      <point x="276" y="632"/>
      <point x="332" y="613"/>
      <point x="406" y="664" type="curve"/>
      <point x="434" y="656" type="line"/>
      <point x="324" y="522" type="line"/>
      <point x="263" y="528"/>
      <point x="188" y="548"/>
    </contour>
    <component base="u"/>
    <contour>
      <point x="252" y="380" type="move" name="_top"/>
    </contour>
    <contour>
      <point x="243" y="653" type="move" name="top"/>
    </contour>
  </outline>
</glyph>
<glyph name="a_hook" format="1">
  <advance width="465"/>
  <unicode hex="1EA3"/>
  <outline>
    <contour>
      <point x="329" y="706" type="curve"/>
      <point x="224" y="662" type="line"/>
      <point x="243" y="648"/>
      <point x="302" y="603"/>
      <point x="302" y="575" type="curve"/>
      <point x="302" y="538"/>
      <point x="221" y="522"/>
      <point x="123" y="491" type="curve"/>
      <point x="143" y="463" type="line"/>
      <point x="258" y="498"/>
      <point x="367" y="522"/>
      <point x="417" y="556" type="curve"/>
      <point x="417" y="599"/>
      <point x="361" y="667"/>
    </contour>
    <contour>
      <point x="279" y="257" type="curve"/>
      <point x="279" y="2"/>
      <point x="278" y="232"/>
      <point x="280" y="-20" type="curve"/>
      <point x="324" y="-8"/>
      <point x="360" y="-1"/>
      <point x="385" y="0" type="curve"/>
      <point x="385" y="30" type="line"/>
      <point x="374" y="43"/>
      <point x="358" y="64"/>
      <point x="360" y="106" type="curve"/>
      <point x="373" y="332" type="line"/>
      <point x="347" y="378"/>
      <point x="303" y="401"/>
      <point x="268" y="409" type="curve"/>
      <point x="212" y="400"/>
      <point x="131" y="356"/>
      <point x="56" y="315" type="curve"/>
      <point x="61" y="292" type="line"/>
      <point x="107" y="313"/>
      <point x="167" y="337"/>
      <point x="210" y="337" type="curve"/>
      <point x="259" y="337"/>
      <point x="279" y="309"/>
    </contour>
    <contour>
      <point x="298" y="92" type="curve"/>
      <point x="301" y="135" type="line"/>
      <point x="273" y="100"/>
      <point x="234" y="66"/>
      <point x="202" y="66" type="curve"/>
      <point x="154" y="66"/>
      <point x="132" y="131"/>
      <point x="132" y="159" type="curve"/>
      <point x="166" y="185"/>
      <point x="225" y="213"/>
      <point x="288" y="228" type="curve"/>
      <point x="286" y="268" type="line"/>
      <point x="219" y="230"/>
      <point x="94" y="174"/>
      <point x="49" y="142" type="curve"/>
      <point x="59" y="77"/>
      <point x="92" y="24"/>
      <point x="137" y="-12" type="curve"/>
      <point x="194" y="24"/>
      <point x="245" y="50"/>
    </contour>
    <contour>
      <point x="217" y="0" type="move" name="bottom"/>
    </contour>
    <contour>
      <point x="371" y="10" type="move" name="ogonek"/>
    </contour>
    <contour>
      <point x="217" y="400" type="move" name="top"/>
    </contour>
  </outline>
</glyph>
<glyph name="q_bardes" format="1">
  <advance width="644"/>
  <unicode hex="A757"/>
  <outline>
    <contour>
      <point x="644" y="-6" type="curve"/>
      <point x="612" y="8" type="line"/>
      <point x="550" y="-55"/>
      <point x="388" y="-56"/>
      <point x="232" y="-81" type="curve"/>
      <point x="224" y="-115" type="line"/>
      <point x="323" y="-105"/>
      <point x="421" y="-104"/>
      <point x="570" y="-88" type="curve"/>
      <point x="589" y="-86"/>
      <point x="624" y="-55"/>
    </contour>
    <component base="q"/>
  </outline>
</glyph>
<glyph name="m_macr" format="1">
  <advance width="748"/>
  <unicode hex="E5B8"/>
  <outline>
    <contour>
      <point x="327" y="497" type="curve"/>
      <point x="303" y="510" type="line"/>
      <point x="386" y="605" type="line"/>
      <point x="464" y="605"/>
      <point x="520" y="586"/>
      <point x="594" y="637" type="curve"/>
      <point x="622" y="629" type="line"/>
      <point x="512" y="495" type="line"/>
      <point x="451" y="501"/>
      <point x="376" y="521"/>
    </contour>
    <component base="m"/>
    <contour>
      <point x="440" y="353" type="move" name="_top"/>
    </contour>
    <contour>
      <point x="431" y="626" type="move" name="top"/>
    </contour>
  </outline>
</glyph>
<glyph name="A.ss01" format="1">
  <advance width="741"/>
  <outline>
    <contour>
      <point x="497" y="478" type="curve"/>
      <point x="493" y="431" type="line"/>
      <point x="379" y="338"/>
      <point x="276" y="246"/>
      <point x="208" y="165" type="curve"/>
      <point x="311" y="93" type="line"/>
      <point x="382" y="149"/>
      <point x="443" y="226"/>
      <point x="497" y="319" type="curve"/>
      <point x="497" y="274" type="line"/>
      <point x="439" y="156"/>
      <point x="364" y="58"/>
      <point x="296" y="-9" type="curve"/>
      <point x="293" y="-10" type="line"/>
      <point x="237" y="26"/>
      <point x="157" y="92"/>
      <point x="110" y="116" type="curve"/>
      <point x="110" y="121" type="line"/>
      <point x="245" y="277"/>
      <point x="342" y="342"/>
    </contour>
    <contour>
      <point x="257" y="441" type="line"/>
      <point x="508" y="441" type="line"/>
      <point x="505" y="373" type="line"/>
      <point x="272" y="373" type="line"/>
    </contour>
    <contour>
      <point x="34" y="413" type="curve"/>
      <point x="11" y="427" type="line"/>
      <point x="102" y="586"/>
      <point x="182" y="715"/>
      <point x="328" y="715" type="curve"/>
      <point x="410" y="715"/>
      <point x="471" y="684"/>
      <point x="508" y="609" type="curve"/>
      <point x="593" y="676" type="line"/>
      <point x="613" y="661" type="line"/>
      <point x="570" y="556"/>
      <point x="570" y="431"/>
      <point x="570" y="294" type="curve"/>
      <point x="570" y="204"/>
      <point x="590" y="90"/>
      <point x="627" y="90" type="curve"/>
      <point x="646" y="90"/>
      <point x="652" y="91"/>
      <point x="674" y="96" type="curve"/>
      <point x="681" y="71" type="line"/>
      <point x="654" y="45"/>
      <point x="624" y="18"/>
      <point x="592" y="-10" type="curve"/>
      <point x="553" y="5"/>
      <point x="528" y="23"/>
      <point x="498" y="42" type="curve"/>
      <point x="482" y="152"/>
      <point x="471" y="322"/>
      <point x="487" y="517" type="curve"/>
      <point x="459" y="578"/>
      <point x="385" y="611"/>
      <point x="303" y="611" type="curve"/>
      <point x="184" y="611"/>
      <point x="122" y="544"/>
    </contour>
  </outline>
</glyph>
<glyph name="B.ss01" format="1">
  <advance width="897"/>
  <outline>
    <contour>
      <point x="137" y="469" type="curve"/>
      <point x="94" y="469"/>
      <point x="76" y="443"/>
      <point x="71" y="412" type="curve"/>
      <point x="52" y="411" type="line"/>
      <point x="14" y="466"/>
      <point x="69" y="581"/>
      <point x="157" y="581" type="curve"/>
      <point x="215" y="581"/>
      <point x="296" y="521"/>
      <point x="296" y="422" type="curve"/>
      <point x="296" y="356"/>
      <point x="265" y="268"/>
      <point x="216" y="132" type="curve"/>
      <point x="186" y="142" type="line"/>
      <point x="258" y="336"/>
      <point x="245" y="469"/>
    </contour>
    <contour>
      <point x="82" y="-6" type="line"/>
      <point x="112" y="124" type="line"/>
      <point x="177" y="180"/>
      <point x="333" y="199"/>
      <point x="433" y="199" type="curve"/>
      <point x="525" y="178"/>
      <point x="581" y="125"/>
      <point x="643" y="71" type="curve"/>
      <point x="733" y="104"/>
      <point x="773" y="144"/>
      <point x="773" y="228" type="curve"/>
      <point x="773" y="363"/>
      <point x="619" y="428"/>
      <point x="476" y="360" type="curve"/>
      <point x="462" y="399" type="line"/>
      <point x="550" y="460"/>
      <point x="623" y="508"/>
      <point x="676" y="558" type="curve"/>
      <point x="649" y="588"/>
      <point x="610" y="613"/>
      <point x="591" y="621" type="curve"/>
      <point x="553" y="596"/>
      <point x="454" y="523"/>
      <point x="442" y="509" type="curve"/>
      <point x="428" y="540" type="line"/>
      <point x="647" y="726" type="line"/>
      <point x="651" y="726" type="line"/>
      <point x="709" y="668"/>
      <point x="757" y="643"/>
      <point x="798" y="619" type="curve"/>
      <point x="798" y="605" type="line"/>
      <point x="547" y="416" type="line"/>
      <point x="578" y="428"/>
      <point x="602" y="433"/>
      <point x="633" y="433" type="curve"/>
      <point x="758" y="433"/>
      <point x="866" y="389"/>
      <point x="866" y="258" type="curve"/>
      <point x="866" y="133"/>
      <point x="682" y="31"/>
      <point x="624" y="-14" type="curve"/>
      <point x="556" y="58"/>
      <point x="500" y="119"/>
      <point x="387" y="119" type="curve"/>
      <point x="261" y="119"/>
      <point x="163" y="71"/>
      <point x="105" y="-13" type="curve"/>
    </contour>
    <contour>
      <point x="520" y="89" type="line"/>
      <point x="375" y="721" type="line"/>
      <point x="404" y="728" type="line"/>
      <point x="549" y="86" type="line"/>
    </contour>
    <contour>
      <point x="442" y="148" type="line"/>
      <point x="300" y="708" type="line"/>
      <point x="328" y="715" type="line"/>
      <point x="469" y="142" type="line"/>
    </contour>
  </outline>
</glyph>
<glyph name="C.ss01" format="1">
  <advance width="719"/>
  <outline>
    <contour>
      <point x="326" y="50" type="curve"/>
      <point x="220" y="64" type="line"/>
      <point x="321" y="65"/>
      <point x="400" y="157"/>
      <point x="400" y="244" type="curve"/>
      <point x="400" y="352"/>
      <point x="290" y="439"/>
      <point x="290" y="531" type="curve"/>
      <point x="290" y="642"/>
      <point x="387" y="715"/>
      <point x="477" y="715" type="curve"/>
      <point x="562" y="715"/>
      <point x="628" y="682"/>
      <point x="687" y="630" type="curve"/>
      <point x="687" y="626" type="line"/>
      <point x="587" y="557" type="line"/>
      <point x="548" y="598"/>
      <point x="501" y="658"/>
      <point x="437" y="658" type="curve"/>
      <point x="401" y="658"/>
      <point x="370" y="632"/>
      <point x="370" y="587" type="curve"/>
      <point x="370" y="475"/>
      <point x="503" y="382"/>
      <point x="503" y="288" type="curve"/>
      <point x="503" y="188"/>
      <point x="370" y="84"/>
    </contour>
    <contour>
      <point x="165" y="64" type="curve"/>
      <point x="307" y="65" type="line" smooth="yes"/>
      <point x="420" y="66"/>
      <point x="537" y="66"/>
      <point x="647" y="92" type="curve"/>
      <point x="653" y="89" type="line"/>
      <point x="613" y="-7" type="line"/>
      <point x="432" y="-1"/>
      <point x="270" y="-1"/>
      <point x="72" y="-7" type="curve"/>
      <point x="77" y="49" type="line"/>
      <point x="161" y="88"/>
      <point x="200" y="144"/>
      <point x="200" y="207" type="curve"/>
      <point x="200" y="301"/>
      <point x="120" y="355"/>
      <point x="120" y="458" type="curve"/>
      <point x="120" y="563"/>
      <point x="259" y="672"/>
      <point x="363" y="672" type="curve"/>
      <point x="363" y="638" type="line"/>
      <point x="282" y="638"/>
      <point x="220" y="571"/>
      <point x="220" y="485" type="curve"/>
      <point x="220" y="377"/>
      <point x="288" y="321"/>
      <point x="288" y="245" type="curve"/>
      <point x="288" y="165"/>
      <point x="235" y="128"/>
    </contour>
  </outline>
</glyph>
<glyph name="D.ss01" format="1">
  <advance width="1005"/>
  <outline>
    <contour>
      <point x="53" y="657" type="curve"/>
      <point x="92" y="788" type="line"/>
      <point x="117" y="788" type="line"/>
      <point x="161" y="708"/>
      <point x="210" y="677"/>
      <point x="316" y="677" type="curve"/>
      <point x="406" y="677"/>
      <point x="506" y="709"/>
      <point x="632" y="709" type="curve"/>
      <point x="802" y="709"/>
      <point x="952" y="599"/>
      <point x="952" y="389" type="curve"/>
      <point x="952" y="209"/>
      <point x="833" y="130"/>
      <point x="751" y="-15" type="curve"/>
      <point x="641" y="-21"/>
      <point x="492" y="22"/>
      <point x="381" y="22" type="curve"/>
      <point x="277" y="22"/>
      <point x="171" y="1"/>
      <point x="78" y="-39" type="curve"/>
      <point x="54" y="-5" type="line"/>
      <point x="55" y="1" type="line"/>
      <point x="147" y="41"/>
      <point x="300" y="97"/>
      <point x="426" y="97" type="curve"/>
      <point x="536" y="97"/>
      <point x="638" y="56"/>
      <point x="732" y="70" type="curve"/>
      <point x="794" y="138"/>
      <point x="843" y="224"/>
      <point x="843" y="333" type="curve"/>
      <point x="843" y="493"/>
      <point x="751" y="602"/>
      <point x="571" y="602" type="curve"/>
      <point x="468" y="602"/>
      <point x="419" y="574"/>
      <point x="292" y="574" type="curve"/>
      <point x="187" y="574"/>
      <point x="86" y="603"/>
    </contour>
    <contour>
      <point x="172" y="22" type="curve"/>
      <point x="114" y="13" type="line"/>
      <point x="151" y="70"/>
      <point x="177" y="130"/>
      <point x="177" y="177" type="curve"/>
      <point x="177" y="266"/>
      <point x="51" y="309"/>
      <point x="51" y="390" type="curve"/>
      <point x="51" y="460"/>
      <point x="206" y="525"/>
      <point x="292" y="581" type="curve"/>
      <point x="353" y="581" type="line"/>
      <point x="294" y="546"/>
      <point x="178" y="475"/>
      <point x="178" y="413" type="curve"/>
      <point x="178" y="359"/>
      <point x="238" y="308"/>
      <point x="238" y="234" type="curve"/>
      <point x="238" y="174"/>
      <point x="209" y="95"/>
    </contour>
    <contour>
      <point x="341" y="618" type="line"/>
      <point x="371" y="618" type="line"/>
      <point x="371" y="82" type="line"/>
      <point x="341" y="82" type="line"/>
    </contour>
    <contour>
      <point x="506" y="618" type="line"/>
      <point x="536" y="618" type="line"/>
      <point x="536" y="82" type="line"/>
      <point x="506" y="82" type="line"/>
    </contour>
    <contour>
      <point x="442" y="226" type="line"/>
      <point x="357" y="310" type="line"/>
      <point x="437" y="395" type="line"/>
      <point x="519" y="312" type="line"/>
    </contour>
  </outline>
</glyph>
<glyph name="D.ss02" format="1">
  <advance width="941"/>
  <outline>
    <contour>
      <point x="495" y="25" type="line"/>
      <point x="466" y="-2" type="line"/>
      <point x="510" y="658" type="line"/>
      <point x="551" y="686" type="line"/>
    </contour>
    <contour>
      <point x="494" y="259" type="line"/>
      <point x="418" y="347" type="line"/>
      <point x="510" y="412" type="line"/>
      <point x="582" y="326" type="line"/>
    </contour>
    <contour>
      <point x="347" y="612" type="curve"/>
      <point x="413" y="623" type="line"/>
      <point x="295" y="569"/>
      <point x="249" y="456"/>
      <point x="249" y="360" type="curve"/>
      <point x="249" y="191"/>
      <point x="381" y="46"/>
      <point x="531" y="46" type="curve"/>
      <point x="694" y="46"/>
      <point x="784" y="182"/>
      <point x="784" y="342" type="curve"/>
      <point x="784" y="506"/>
      <point x="675" y="628"/>
      <point x="509" y="628" type="curve"/>
      <point x="390" y="628"/>
      <point x="372" y="602"/>
      <point x="290" y="602" type="curve"/>
      <point x="193" y="602"/>
      <point x="95" y="615"/>
      <point x="44" y="665" type="curve"/>
      <point x="121" y="775" type="line"/>
      <point x="141" y="765" type="line"/>
      <point x="152" y="724"/>
      <point x="229" y="710"/>
      <point x="299" y="710" type="curve"/>
      <point x="368" y="710"/>
      <point x="466" y="716"/>
      <point x="571" y="716" type="curve"/>
      <point x="737" y="716"/>
      <point x="897" y="569"/>
      <point x="897" y="371" type="curve"/>
      <point x="897" y="161"/>
      <point x="700" y="-10"/>
      <point x="484" y="-10" type="curve"/>
      <point x="286" y="-10"/>
      <point x="136" y="134"/>
      <point x="136" y="332" type="curve"/>
      <point x="136" y="374"/>
      <point x="152" y="453"/>
      <point x="181" y="485" type="curve"/>
      <point x="218" y="525"/>
      <point x="265" y="569"/>
    </contour>
  </outline>
</glyph>
<glyph name="E.ss01" format="1">
  <advance width="900"/>
  <outline>
    <contour>
      <point x="665" y="497" type="curve"/>
      <point x="502" y="322" type="line"/>
      <point x="502" y="311" type="line"/>
      <point x="572" y="329"/>
      <point x="737" y="318"/>
      <point x="825" y="338" type="curve"/>
      <point x="854" y="426" type="line"/>
      <point x="849" y="432" type="line"/>
      <point x="777" y="411"/>
      <point x="687" y="401"/>
      <point x="615" y="396" type="curve"/>
      <point x="796" y="574" type="line"/>
      <point x="795" y="580" type="line"/>
      <point x="735" y="615"/>
      <point x="674" y="673"/>
      <point x="641" y="718" type="curve"/>
      <point x="636" y="718" type="line"/>
      <point x="500" y="557" type="line"/>
      <point x="500" y="516" type="line"/>
      <point x="580" y="590" type="line"/>
      <point x="600" y="558"/>
      <point x="638" y="522"/>
    </contour>
    <contour>
      <point x="494" y="87" type="curve"/>
      <point x="325" y="87"/>
      <point x="186" y="218"/>
      <point x="186" y="378" type="curve"/>
      <point x="186" y="549"/>
      <point x="314" y="664"/>
      <point x="484" y="664" type="curve"/>
      <point x="488" y="585"/>
      <point x="488" y="117"/>
      <point x="483" y="47" type="curve"/>
      <point x="489" y="44" type="line"/>
      <point x="517" y="74" type="line"/>
      <point x="512" y="145"/>
      <point x="512" y="635"/>
      <point x="517" y="713" type="curve"/>
      <point x="512" y="719" type="line"/>
      <point x="276" y="710"/>
      <point x="83" y="558"/>
      <point x="83" y="351" type="curve"/>
      <point x="83" y="87"/>
      <point x="327" y="-7"/>
      <point x="445" y="-7" type="curve"/>
      <point x="478" y="-7"/>
      <point x="665" y="81"/>
      <point x="746" y="121" type="curve"/>
      <point x="736" y="157" type="line"/>
      <point x="613" y="109"/>
      <point x="541" y="87"/>
    </contour>
    <contour>
      <point x="329" y="121" type="curve"/>
      <point x="357" y="104" type="line"/>
      <point x="386" y="151"/>
      <point x="416" y="193"/>
      <point x="445" y="230" type="curve"/>
      <point x="438" y="368"/>
      <point x="436" y="556"/>
      <point x="442" y="678" type="curve"/>
      <point x="360" y="663" type="line"/>
      <point x="372" y="518"/>
      <point x="369" y="395"/>
      <point x="365" y="266" type="curve"/>
      <point x="364" y="230"/>
      <point x="356" y="182"/>
    </contour>
  </outline>
</glyph>
<glyph name="F.ss01" format="1">
  <advance width="735"/>
  <outline>
    <contour>
      <point x="73" y="-66" type="curve"/>
      <point x="78" y="-89" type="line"/>
      <point x="250" y="-65"/>
      <point x="324" y="31"/>
      <point x="324" y="155" type="curve"/>
      <point x="324" y="238"/>
      <point x="298" y="409"/>
      <point x="298" y="482" type="curve"/>
      <point x="298" y="576"/>
      <point x="338" y="639"/>
      <point x="438" y="629" type="curve"/>
      <point x="461" y="648" type="line"/>
      <point x="422" y="666"/>
      <point x="396" y="667"/>
      <point x="369" y="667" type="curve"/>
      <point x="279" y="667"/>
      <point x="204" y="599"/>
      <point x="204" y="471" type="curve"/>
      <point x="204" y="386"/>
      <point x="233" y="229"/>
      <point x="233" y="155" type="curve"/>
      <point x="233" y="2"/>
      <point x="193" y="-42"/>
    </contour>
    <contour>
      <point x="43" y="262" type="curve"/>
      <point x="65" y="252" type="line"/>
      <point x="83" y="295"/>
      <point x="125" y="309"/>
      <point x="245" y="309" type="curve"/>
      <point x="676" y="309" type="line"/>
      <point x="677" y="338"/>
      <point x="676" y="359"/>
      <point x="682" y="411" type="curve"/>
      <point x="658" y="415" type="line"/>
      <point x="641" y="394"/>
      <point x="625" y="389"/>
      <point x="550" y="387" type="curve"/>
      <point x="429" y="384"/>
      <point x="309" y="381"/>
      <point x="188" y="375" type="curve"/>
      <point x="113" y="371"/>
      <point x="68" y="334"/>
    </contour>
    <contour>
      <point x="597" y="80" type="curve"/>
      <point x="555" y="80"/>
      <point x="526" y="101"/>
      <point x="477" y="111" type="curve"/>
      <point x="487" y="161"/>
      <point x="512" y="214"/>
      <point x="512" y="276" type="curve"/>
      <point x="512" y="365"/>
      <point x="495" y="455"/>
      <point x="495" y="563" type="curve"/>
      <point x="495" y="628"/>
      <point x="506" y="662"/>
      <point x="549" y="662" type="curve"/>
      <point x="580" y="662"/>
      <point x="603" y="641"/>
      <point x="637" y="605" type="curve"/>
      <point x="641" y="605" type="line"/>
      <point x="709" y="672" type="line"/>
      <point x="681" y="701"/>
      <point x="611" y="716"/>
      <point x="569" y="716" type="curve"/>
      <point x="490" y="716"/>
      <point x="403" y="676"/>
      <point x="403" y="555" type="curve"/>
      <point x="403" y="368"/>
      <point x="438" y="296"/>
      <point x="434" y="139" type="curve"/>
      <point x="433" y="100"/>
      <point x="428" y="63"/>
      <point x="413" y="16" type="curve"/>
      <point x="435" y="8" type="line"/>
      <point x="442" y="23"/>
      <point x="447" y="35"/>
      <point x="456" y="35" type="curve"/>
      <point x="486" y="35"/>
      <point x="516" y="11"/>
      <point x="551" y="-9" type="curve"/>
      <point x="586" y="15"/>
      <point x="624" y="42"/>
      <point x="669" y="65" type="curve"/>
      <point x="655" y="88" type="line"/>
      <point x="637" y="80"/>
      <point x="611" y="80"/>
    </contour>
  </outline>
</glyph>
<glyph name="H.ss01" format="1">
  <advance width="931"/>
  <outline>
    <contour>
      <point x="587" y="257" type="line"/>
      <point x="506" y="336" type="line"/>
      <point x="582" y="416" type="line"/>
      <point x="659" y="338" type="line"/>
    </contour>
    <contour>
      <point x="66" y="511" type="line"/>
      <point x="74" y="611" type="line"/>
      <point x="121" y="728"/>
      <point x="331" y="697"/>
      <point x="430" y="707" type="curve"/>
      <point x="425" y="37" type="line"/>
      <point x="402" y="63" type="line"/>
      <point x="402" y="645" type="line"/>
      <point x="262" y="645"/>
      <point x="175" y="654"/>
      <point x="95" y="511" type="curve"/>
    </contour>
    <contour>
      <point x="136" y="33" type="line"/>
      <point x="136" y="37" type="line"/>
      <point x="196" y="80"/>
      <point x="265" y="104"/>
      <point x="288" y="104" type="curve"/>
      <point x="358" y="104"/>
      <point x="448" y="66"/>
      <point x="498" y="66" type="curve"/>
      <point x="522" y="66"/>
      <point x="577" y="105"/>
      <point x="634" y="158" type="curve"/>
      <point x="650" y="130" type="line"/>
      <point x="599" y="81"/>
      <point x="519" y="0"/>
      <point x="473" y="-19" type="curve"/>
      <point x="470" y="-19" type="line"/>
      <point x="425" y="-5"/>
      <point x="377" y="15"/>
      <point x="334" y="15" type="curve"/>
      <point x="293" y="15"/>
      <point x="260" y="3"/>
      <point x="223" y="-19" type="curve"/>
    </contour>
    <contour>
      <point x="425" y="440" type="curve"/>
      <point x="416" y="490" type="line"/>
      <point x="458" y="574"/>
      <point x="537" y="659"/>
      <point x="633" y="659" type="curve"/>
      <point x="774" y="659"/>
      <point x="866" y="525"/>
      <point x="866" y="383" type="curve"/>
      <point x="866" y="215"/>
      <point x="794" y="122"/>
      <point x="705" y="-19" type="curve"/>
      <point x="673" y="-3" type="line"/>
      <point x="742" y="102"/>
      <point x="772" y="184"/>
      <point x="772" y="297" type="curve"/>
      <point x="772" y="429"/>
      <point x="702" y="583"/>
      <point x="588" y="583" type="curve"/>
      <point x="513" y="583"/>
      <point x="465" y="521"/>
    </contour>
    <contour>
      <point x="166" y="369" type="curve"/>
      <point x="166" y="372" type="line"/>
      <point x="268" y="437" type="line"/>
      <point x="261" y="297" type="line"/>
      <point x="238" y="333"/>
      <point x="209" y="355"/>
    </contour>
    <contour>
      <point x="167" y="267" type="curve"/>
      <point x="166" y="271" type="line"/>
      <point x="245" y="324" type="line"/>
      <point x="254" y="650" type="line"/>
      <point x="339" y="650" type="line"/>
      <point x="339" y="246" type="line" smooth="yes"/>
      <point x="339" y="162"/>
      <point x="301" y="130"/>
      <point x="273" y="73" type="curve"/>
      <point x="233" y="80" type="line"/>
      <point x="267" y="130"/>
      <point x="260" y="185"/>
      <point x="256" y="202" type="curve"/>
      <point x="251" y="224"/>
      <point x="199" y="258"/>
    </contour>
  </outline>
</glyph>
<glyph name="M.ss01" format="1">
  <advance width="1200"/>
  <outline>
    <contour>
      <point x="539" y="168" type="curve"/>
      <point x="545" y="130" type="line"/>
      <point x="476" y="95"/>
      <point x="333" y="-6"/>
      <point x="315" y="-6" type="curve"/>
      <point x="116" y="-6"/>
      <point x="30" y="161"/>
      <point x="30" y="321" type="curve"/>
      <point x="30" y="547"/>
      <point x="174" y="707"/>
      <point x="348" y="707" type="curve"/>
      <point x="540" y="707"/>
      <point x="627" y="547"/>
      <point x="627" y="404" type="curve"/>
      <point x="627" y="270"/>
      <point x="580" y="136"/>
      <point x="547" y="65" type="curve"/>
      <point x="640" y="34"/>
      <point x="665" y="7"/>
      <point x="730" y="33" type="curve"/>
      <point x="752" y="17" type="line"/>
      <point x="639" y="-87" type="line"/>
      <point x="599" y="-62"/>
      <point x="533" y="-20"/>
      <point x="474" y="-9" type="curve"/>
      <point x="470" y="-2" type="line"/>
      <point x="519" y="138"/>
      <point x="540" y="184"/>
      <point x="540" y="296" type="curve"/>
      <point x="540" y="471"/>
      <point x="460" y="633"/>
      <point x="323" y="633" type="curve"/>
      <point x="193" y="633"/>
      <point x="131" y="508"/>
      <point x="131" y="348" type="curve"/>
      <point x="131" y="167"/>
      <point x="225" y="83"/>
      <point x="326" y="83" type="curve"/>
      <point x="421" y="83"/>
      <point x="477" y="119"/>
    </contour>
    <contour>
      <point x="586" y="386" type="curve"/>
      <point x="578" y="431" type="line"/>
      <point x="626" y="593"/>
      <point x="703" y="707"/>
      <point x="868" y="707" type="curve"/>
      <point x="1066" y="707"/>
      <point x="1170" y="575"/>
      <point x="1170" y="427" type="curve"/>
      <point x="1170" y="224"/>
      <point x="978" y="85"/>
      <point x="978" y="4" type="curve"/>
      <point x="978" y="-34"/>
      <point x="1000" y="-77"/>
      <point x="1018" y="-106" type="curve"/>
      <point x="986" y="-128" type="line"/>
      <point x="948" y="-80"/>
      <point x="935" y="-34"/>
      <point x="925" y="4" type="curve"/>
      <point x="925" y="94"/>
      <point x="1054" y="225"/>
      <point x="1054" y="380" type="curve"/>
      <point x="1054" y="514"/>
      <point x="968" y="617"/>
      <point x="831" y="617" type="curve"/>
      <point x="709" y="617"/>
      <point x="648" y="534"/>
    </contour>
    <contour>
      <point x="94" y="246" type="line"/>
      <point x="94" y="269" type="line"/>
      <point x="1084" y="270" type="line"/>
      <point x="1084" y="247" type="line"/>
    </contour>
    <contour>
      <point x="94" y="362" type="line"/>
      <point x="94" y="385" type="line"/>
      <point x="1084" y="386" type="line"/>
      <point x="1084" y="363" type="line"/>
    </contour>
  </outline>
</glyph>
<glyph name="O.ss01" format="1">
  <advance width="878"/>
  <outline>
    <contour>
      <point x="463" y="709" type="curve"/>
      <point x="676" y="709"/>
      <point x="816" y="554"/>
      <point x="816" y="358" type="curve"/>
      <point x="816" y="151"/>
      <point x="620" y="-10"/>
      <point x="416" y="-10" type="curve"/>
      <point x="212" y="-10"/>
      <point x="62" y="141"/>
      <point x="62" y="337" type="curve"/>
      <point x="62" y="547"/>
      <point x="262" y="709"/>
    </contour>
    <contour>
      <point x="703" y="349" type="curve"/>
      <point x="703" y="531"/>
      <point x="601" y="663"/>
      <point x="445" y="663" type="curve"/>
      <point x="296" y="663"/>
      <point x="173" y="526"/>
      <point x="173" y="346" type="curve"/>
      <point x="173" y="167"/>
      <point x="270" y="35"/>
      <point x="446" y="35" type="curve"/>
      <point x="610" y="35"/>
      <point x="703" y="178"/>
    </contour>
    <contour>
      <point x="418" y="23" type="line"/>
      <point x="390" y="-2" type="line"/>
      <point x="461" y="669" type="line"/>
      <point x="492" y="679" type="line"/>
    </contour>
    <contour>
      <point x="431" y="246" type="line"/>
      <point x="357" y="333" type="line"/>
      <point x="448" y="399" type="line"/>
      <point x="519" y="314" type="line"/>
    </contour>
  </outline>
</glyph>
<glyph name="Q.ss01" format="1">
  <advance width="863"/>
  <outline>
    <contour>
      <point x="516" y="29" type="curve"/>
      <point x="543" y="61"/>
      <point x="585" y="100"/>
      <point x="621" y="157" type="curve"/>
      <point x="598" y="168" type="line"/>
      <point x="555" y="124"/>
      <point x="455" y="92"/>
      <point x="371" y="92" type="curve"/>
      <point x="231" y="92"/>
      <point x="121" y="162"/>
      <point x="121" y="320" type="curve"/>
      <point x="121" y="486"/>
      <point x="251" y="616"/>
      <point x="430" y="616" type="curve"/>
      <point x="589" y="616"/>
      <point x="714" y="524"/>
      <point x="714" y="345" type="curve"/>
      <point x="714" y="198"/>
      <point x="623" y="75"/>
      <point x="566" y="16" type="curve"/>
      <point x="573" y="-8" type="line"/>
      <point x="641" y="4"/>
      <point x="690" y="2"/>
      <point x="779" y="-8" type="curve"/>
      <point x="827" y="98" type="line"/>
      <point x="805" y="107" type="line"/>
      <point x="763" y="78"/>
      <point x="724" y="82"/>
      <point x="652" y="82" type="curve"/>
      <point x="657" y="70" type="line"/>
      <point x="720" y="148"/>
      <point x="829" y="266"/>
      <point x="829" y="389" type="curve"/>
      <point x="829" y="558"/>
      <point x="674" y="709"/>
      <point x="478" y="709" type="curve"/>
      <point x="218" y="709"/>
      <point x="62" y="533"/>
      <point x="62" y="323" type="curve"/>
      <point x="62" y="122"/>
      <point x="190" y="-6"/>
      <point x="338" y="-6" type="curve"/>
      <point x="414" y="-6"/>
      <point x="472" y="6"/>
    </contour>
    <contour>
      <point x="272" y="587" type="curve"/>
      <point x="450" y="45" type="line"/>
      <point x="466" y="86" type="line"/>
      <point x="290" y="629" type="line"/>
      <point x="282" y="616"/>
      <point x="276" y="603"/>
    </contour>
    <contour>
      <point x="346" y="416" type="line"/>
      <point x="287" y="322" type="line"/>
      <point x="389" y="269" type="line"/>
      <point x="444" y="364" type="line"/>
    </contour>
  </outline>
</glyph>
<glyph name="R.ss01" format="1">
  <advance width="728"/>
  <outline>
    <contour>
      <point x="354" y="664" type="line"/>
      <point x="324" y="654" type="line"/>
      <point x="313" y="35" type="line"/>
      <point x="342" y="34" type="line"/>
    </contour>
    <contour>
      <point x="30" y="440" type="line"/>
      <point x="36" y="438" type="line"/>
      <point x="169" y="527"/>
      <point x="245" y="641"/>
      <point x="378" y="641" type="curve"/>
      <point x="457" y="641"/>
      <point x="485" y="603"/>
      <point x="485" y="560" type="curve"/>
      <point x="485" y="446"/>
      <point x="326" y="400"/>
      <point x="196" y="378" type="curve"/>
      <point x="197" y="353" type="line"/>
      <point x="379" y="386"/>
      <point x="589" y="441"/>
      <point x="589" y="580" type="curve"/>
      <point x="589" y="660"/>
      <point x="535" y="710"/>
      <point x="423" y="710" type="curve"/>
      <point x="266" y="710"/>
      <point x="90" y="546"/>
      <point x="31" y="513" type="curve"/>
    </contour>
    <contour>
      <point x="170" y="367" type="line"/>
      <point x="176" y="330" type="line"/>
      <point x="209" y="340"/>
      <point x="218" y="353"/>
      <point x="295" y="353" type="curve"/>
      <point x="379" y="353"/>
      <point x="459" y="292"/>
      <point x="499" y="185" type="curve"/>
      <point x="534" y="92"/>
      <point x="540" y="2"/>
      <point x="621" y="-11" type="curve"/>
      <point x="698" y="73" type="line"/>
      <point x="677" y="94" type="line"/>
      <point x="660" y="83"/>
      <point x="656" y="83"/>
      <point x="638" y="83" type="curve"/>
      <point x="609" y="83"/>
      <point x="591" y="135"/>
      <point x="578" y="223" type="curve"/>
      <point x="562" y="331"/>
      <point x="495" y="417"/>
      <point x="390" y="410" type="curve"/>
    </contour>
    <contour>
      <point x="72" y="14" type="curve"/>
      <point x="86" y="-13" type="line"/>
      <point x="122" y="9"/>
      <point x="156" y="21"/>
      <point x="197" y="21" type="curve"/>
      <point x="231" y="21"/>
      <point x="279" y="1"/>
      <point x="323" y="-13" type="curve"/>
      <point x="326" y="-13" type="line"/>
      <point x="367" y="21"/>
      <point x="429" y="75"/>
      <point x="457" y="103" type="curve"/>
      <point x="441" y="124" type="line"/>
      <point x="419" y="108"/>
      <point x="361" y="72"/>
      <point x="337" y="72" type="curve"/>
      <point x="295" y="72"/>
      <point x="240" y="100"/>
      <point x="183" y="109" type="curve"/>
      <point x="213" y="57" type="line"/>
      <point x="245" y="621" type="line"/>
      <point x="151" y="551" type="line"/>
      <point x="121" y="123" type="line" smooth="yes"/>
      <point x="118" y="74"/>
      <point x="94" y="36"/>
    </contour>
  </outline>
</glyph>
<glyph name="R_stroke" format="1">
  <advance width="899"/>
  <outline>
    <contour>
      <point x="177" y="-244" type="line"/>
      <point x="187" y="-245" type="line"/>
      <point x="492" y="-8"/>
      <point x="648" y="253"/>
      <point x="835" y="450" type="curve"/>
      <point x="835" y="471" type="line"/>
      <point x="781" y="464"/>
      <point x="722" y="461"/>
      <point x="674" y="462" type="curve"/>
      <point x="674" y="432" type="line"/>
      <point x="730" y="413"/>
      <point x="725" y="412"/>
      <point x="699" y="372" type="curve"/>
      <point x="570" y="176"/>
      <point x="402" y="-45"/>
      <point x="171" y="-198" type="curve"/>
    </contour>
    <component base="R"/>
  </outline>
</glyph>
<glyph name="U.ss01" format="1">
  <advance width="826"/>
  <outline>
    <contour>
      <point x="698" y="725" type="line"/>
      <point x="594" y="653" type="line"/>
      <point x="588" y="243" type="line"/>
      <point x="584" y="2" type="line" smooth="yes"/>
      <point x="584" y="-7"/>
      <point x="618" y="4"/>
      <point x="697" y="-10" type="curve"/>
      <point x="707" y="-10"/>
      <point x="756" y="36"/>
      <point x="786" y="71" type="curve"/>
      <point x="779" y="96" type="line"/>
      <point x="757" y="91"/>
      <point x="744" y="90"/>
      <point x="725" y="90" type="curve"/>
      <point x="688" y="90"/>
      <point x="666" y="204"/>
      <point x="666" y="294" type="curve"/>
      <point x="666" y="448"/>
      <point x="675" y="605"/>
      <point x="718" y="710" type="curve"/>
    </contour>
    <contour>
      <point x="372" y="49" type="curve"/>
      <point x="227" y="49"/>
      <point x="155" y="151"/>
      <point x="155" y="292" type="curve"/>
      <point x="155" y="455"/>
      <point x="273" y="571"/>
      <point x="379" y="676" type="curve"/>
      <point x="379" y="41" type="line"/>
      <point x="409" y="41" type="line"/>
      <point x="409" y="719" type="line"/>
      <point x="326" y="709"/>
      <point x="211" y="709"/>
      <point x="110" y="719" type="curve"/>
      <point x="62" y="612" type="line"/>
      <point x="81" y="605" type="line"/>
      <point x="149" y="628"/>
      <point x="235" y="626"/>
      <point x="307" y="626" type="curve"/>
      <point x="290" y="639" type="line"/>
      <point x="229" y="573"/>
      <point x="45" y="420"/>
      <point x="45" y="255" type="curve"/>
      <point x="45" y="103"/>
      <point x="143" y="-11"/>
      <point x="326" y="-11" type="curve"/>
      <point x="515" y="-11"/>
      <point x="631" y="160"/>
      <point x="631" y="287" type="curve"/>
      <point x="590" y="292" type="line"/>
      <point x="590" y="162"/>
      <point x="508" y="49"/>
    </contour>
    <contour>
      <point x="395" y="227" type="line"/>
      <point x="482" y="309" type="line"/>
      <point x="390" y="391" type="line"/>
      <point x="306" y="307" type="line"/>
    </contour>
    <contour>
      <point x="0" y="0"/>
    </contour>
  </outline>
</glyph>
<glyph name="V.ss01" format="1">
  <advance width="1005"/>
  <outline>
    <contour>
      <point x="375" y="404" type="curve"/>
      <point x="411" y="468" type="line"/>
      <point x="397" y="610"/>
      <point x="323" y="660"/>
      <point x="265" y="660" type="curve"/>
      <point x="186" y="660"/>
      <point x="160" y="615"/>
      <point x="71" y="506" type="curve"/>
      <point x="103" y="482" type="line"/>
      <point x="155" y="531"/>
      <point x="195" y="547"/>
      <point x="244" y="547" type="curve"/>
      <point x="281" y="547"/>
      <point x="355" y="528"/>
    </contour>
    <contour>
      <point x="736" y="78" type="curve"/>
      <point x="717" y="78"/>
      <point x="584" y="151"/>
      <point x="418" y="151" type="curve"/>
      <point x="341" y="151"/>
      <point x="270" y="143"/>
      <point x="199" y="124" type="curve"/>
      <point x="277" y="195"/>
      <point x="397" y="407"/>
      <point x="499" y="564" type="curve"/>
      <point x="624" y="635"/>
      <point x="856" y="602"/>
      <point x="856" y="358" type="curve"/>
      <point x="856" y="228"/>
      <point x="800" y="143"/>
    </contour>
    <contour>
      <point x="613" y="411" type="line"/>
      <point x="529" y="332" type="line"/>
      <point x="617" y="254" type="line"/>
      <point x="698" y="334" type="line"/>
    </contour>
    <contour>
      <point x="495" y="672" type="curve"/>
      <point x="368" y="429" type="line" smooth="yes"/>
      <point x="319" y="336"/>
      <point x="127" y="89"/>
      <point x="14" y="12" type="curve"/>
      <point x="35" y="-22" type="line"/>
      <point x="126" y="18"/>
      <point x="212" y="43"/>
      <point x="359" y="43" type="curve"/>
      <point x="460" y="43"/>
      <point x="583" y="25"/>
      <point x="686" y="-22" type="curve"/>
      <point x="703" y="-22" type="line"/>
      <point x="819" y="89"/>
      <point x="965" y="200"/>
      <point x="965" y="391" type="curve"/>
      <point x="965" y="576"/>
      <point x="845" y="706"/>
      <point x="670" y="715" type="curve"/>
      <point x="630" y="717"/>
      <point x="566" y="708"/>
    </contour>
  </outline>
</glyph>
<glyph name="b_strok" format="1">
  <advance width="504"/>
  <outline>
    <contour>
      <point x="203" y="704" type="line"/>
      <point x="203" y="673" type="line"/>
      <point x="268" y="655"/>
      <point x="296" y="650"/>
      <point x="286" y="611" type="curve"/>
      <point x="266" y="532"/>
      <point x="176" y="481"/>
      <point x="85" y="440" type="curve"/>
      <point x="95" y="416" type="line"/>
      <point x="235" y="474"/>
      <point x="355" y="560"/>
      <point x="365" y="694" type="curve"/>
    </contour>
    <component base="b"/>
  </outline>
</glyph>
<glyph name="c_hook" format="1">
  <advance width="415"/>
  <outline>
    <contour>
      <point x="327" y="636" type="curve"/>
      <point x="235" y="583" type="line"/>
      <point x="340" y="527"/>
      <point x="325" y="487"/>
      <point x="249" y="487" type="curve"/>
      <point x="186" y="487"/>
      <point x="141" y="510"/>
      <point x="114" y="527" type="curve"/>
      <point x="95" y="507" type="line"/>
      <point x="128" y="482"/>
      <point x="173" y="459"/>
      <point x="263" y="459" type="curve"/>
      <point x="332" y="459"/>
      <point x="405" y="489"/>
      <point x="405" y="536" type="curve"/>
      <point x="405" y="588"/>
      <point x="357" y="620"/>
    </contour>
    <component base="c"/>
    <contour>
      <point x="231" y="400" type="move" name="_top"/>
    </contour>
    <contour>
      <point x="231" y="716" type="move" name="top"/>
    </contour>
  </outline>
</glyph>
<glyph name="c_ra" format="1">
  <advance width="415"/>
  <outline>
    <contour>
      <point x="55" y="552" type="curve"/>
      <point x="33" y="565" type="line"/>
      <point x="111" y="663" type="line"/>
      <point x="132" y="633"/>
      <point x="157" y="603"/>
      <point x="178" y="584" type="curve"/>
      <point x="191" y="597"/>
      <point x="213" y="617"/>
      <point x="237" y="652" type="curve"/>
      <point x="272" y="633"/>
      <point x="298" y="614"/>
      <point x="323" y="614" type="curve"/>
      <point x="342" y="614"/>
      <point x="352" y="621"/>
      <point x="358" y="641" type="curve"/>
      <point x="379" y="633" type="line"/>
      <point x="367" y="590"/>
      <point x="327" y="542"/>
      <point x="288" y="529" type="curve"/>
      <point x="263" y="550"/>
      <point x="237" y="578"/>
      <point x="214" y="578" type="curve"/>
      <point x="198" y="578"/>
      <point x="174" y="548"/>
      <point x="155" y="522" type="curve"/>
      <point x="124" y="551"/>
      <point x="99" y="572"/>
      <point x="79" y="572" type="curve"/>
      <point x="74" y="572"/>
      <point x="66" y="568"/>
    </contour>
    <component base="c"/>
  </outline>
</glyph>
<glyph name="d_strok" format="1">
  <advance width="509"/>
  <outline>
    <contour>
      <point x="514" y="540" type="curve"/>
      <point x="492" y="547" type="line"/>
      <point x="430" y="484"/>
      <point x="228" y="474"/>
      <point x="72" y="478" type="curve"/>
      <point x="64" y="444" type="line"/>
      <point x="163" y="444"/>
      <point x="321" y="435"/>
      <point x="470" y="451" type="curve"/>
      <point x="490" y="482"/>
      <point x="502" y="511"/>
    </contour>
    <component base="d"/>
  </outline>
</glyph>
<glyph name="g.ss01" format="1">
  <advance width="584"/>
  <outline>
    <contour>
      <point x="55" y="241" type="curve"/>
      <point x="55" y="154"/>
      <point x="117" y="83"/>
      <point x="231" y="83" type="curve"/>
      <point x="371" y="83"/>
      <point x="447" y="152"/>
      <point x="447" y="259" type="curve"/>
      <point x="447" y="278"/>
      <point x="442" y="307"/>
      <point x="433" y="323" type="curve"/>
      <point x="476" y="331"/>
      <point x="515" y="335"/>
      <point x="558" y="337" type="curve"/>
      <point x="555" y="400" type="line"/>
      <point x="454" y="400" type="line" smooth="yes"/>
      <point x="385" y="400"/>
      <point x="347" y="411"/>
      <point x="264" y="410" type="curve"/>
      <point x="151" y="408"/>
      <point x="55" y="347"/>
    </contour>
    <contour>
      <point x="151" y="227" type="curve"/>
      <point x="151" y="302"/>
      <point x="198" y="350"/>
      <point x="261" y="350" type="curve"/>
      <point x="315" y="350"/>
      <point x="349" y="306"/>
      <point x="349" y="244" type="curve"/>
      <point x="349" y="174"/>
      <point x="302" y="121"/>
      <point x="241" y="121" type="curve"/>
      <point x="189" y="121"/>
      <point x="151" y="164"/>
    </contour>
    <contour>
      <point x="242" y="84" type="curve"/>
      <point x="185" y="105" type="line"/>
      <point x="66" y="34" type="line"/>
      <point x="66" y="-21"/>
      <point x="144" y="-61"/>
      <point x="210" y="-62" type="curve"/>
      <point x="269" y="-63"/>
      <point x="326" y="-63"/>
      <point x="385" y="-64" type="curve"/>
      <point x="460" y="-65"/>
      <point x="535" y="-88"/>
      <point x="535" y="-148" type="curve"/>
      <point x="535" y="-210"/>
      <point x="459" y="-251"/>
      <point x="349" y="-251" type="curve"/>
      <point x="234" y="-251"/>
      <point x="153" y="-195"/>
      <point x="153" y="-131" type="curve"/>
      <point x="153" y="-99"/>
      <point x="174" y="-76"/>
      <point x="222" y="-58" type="curve"/>
      <point x="175" y="-49" type="line"/>
      <point x="104" y="-71"/>
      <point x="58" y="-86"/>
      <point x="58" y="-150" type="curve"/>
      <point x="58" y="-233"/>
      <point x="180" y="-288"/>
      <point x="328" y="-288" type="curve"/>
      <point x="460" y="-288"/>
      <point x="594" y="-219"/>
      <point x="594" y="-119" type="curve"/>
      <point x="594" y="-46"/>
      <point x="537" y="-6"/>
      <point x="451" y="-6" type="curve"/>
      <point x="382" y="-6"/>
      <point x="322" y="-17"/>
      <point x="264" y="-17" type="curve"/>
      <point x="208" y="-17"/>
      <point x="161" y="8"/>
      <point x="161" y="36" type="curve"/>
      <point x="161" y="59"/>
      <point x="207" y="84"/>
    </contour>
  </outline>
</glyph>
<glyph name="g_stroke" format="1">
  <advance width="600"/>
  <outline>
    <contour>
      <point x="557" y="470" type="curve"/>
      <point x="500" y="470" type="line"/>
      <point x="479" y="256"/>
      <point x="510" y="2"/>
      <point x="548" y="-163" type="curve"/>
      <point x="588" y="-154" type="line"/>
      <point x="545" y="3"/>
      <point x="525" y="222"/>
    </contour>
    <contour>
      <point x="58" y="243" type="curve"/>
      <point x="58" y="161"/>
      <point x="122" y="94"/>
      <point x="229" y="94" type="curve"/>
      <point x="361" y="94"/>
      <point x="439" y="159"/>
      <point x="439" y="260" type="curve"/>
      <point x="439" y="296"/>
      <point x="430" y="325"/>
      <point x="410" y="359" type="curve"/>
      <point x="491" y="360"/>
      <point x="543" y="356"/>
      <point x="611" y="332" type="curve"/>
      <point x="646" y="393" type="line"/>
      <point x="644" y="400" type="line"/>
      <point x="518" y="392"/>
      <point x="313" y="402"/>
      <point x="260" y="402" type="curve"/>
      <point x="152" y="402"/>
      <point x="58" y="342"/>
    </contour>
    <contour>
      <point x="146" y="248" type="curve"/>
      <point x="146" y="319"/>
      <point x="189" y="364"/>
      <point x="248" y="364" type="curve"/>
      <point x="318" y="364"/>
      <point x="350" y="304"/>
      <point x="350" y="245" type="curve"/>
      <point x="350" y="179"/>
      <point x="323" y="120"/>
      <point x="247" y="120" type="curve"/>
      <point x="170" y="120"/>
      <point x="146" y="189"/>
    </contour>
    <contour>
      <point x="223" y="104" type="curve"/>
      <point x="158" y="125" type="line"/>
      <point x="48" y="74" type="line"/>
      <point x="48" y="56" type="line"/>
      <point x="67" y="50"/>
      <point x="121" y="23"/>
      <point x="150" y="5" type="curve"/>
      <point x="328" y="20"/>
      <point x="416" y="-29"/>
      <point x="416" y="-124" type="curve"/>
      <point x="416" y="-208"/>
      <point x="361" y="-260"/>
      <point x="265" y="-260" type="curve"/>
      <point x="170" y="-260"/>
      <point x="92" y="-226"/>
      <point x="92" y="-128" type="curve"/>
      <point x="92" y="-74"/>
      <point x="127" y="-7"/>
      <point x="215" y="18" type="curve"/>
      <point x="164" y="27" type="line"/>
      <point x="93" y="-3"/>
      <point x="10" y="-47"/>
      <point x="10" y="-139" type="curve"/>
      <point x="10" y="-240"/>
      <point x="132" y="-288"/>
      <point x="260" y="-288" type="curve"/>
      <point x="401" y="-288"/>
      <point x="490" y="-218"/>
      <point x="490" y="-107" type="curve"/>
      <point x="490" y="-12"/>
      <point x="393" y="40"/>
      <point x="297" y="41" type="curve"/>
      <point x="211" y="42"/>
      <point x="170" y="46"/>
      <point x="133" y="69" type="curve"/>
      <point x="164" y="95"/>
      <point x="188" y="104"/>
    </contour>
  </outline>
</glyph>
<glyph name="h_ring" format="1">
  <advance width="553"/>
  <outline>
    <contour>
      <point x="81" y="327" type="curve"/>
      <point x="98" y="243" type="line"/>
      <point x="134" y="297"/>
      <point x="182" y="327"/>
      <point x="241" y="327" type="curve"/>
      <point x="344" y="327"/>
      <point x="412" y="262"/>
      <point x="412" y="186" type="curve"/>
      <point x="412" y="107"/>
      <point x="373" y="72"/>
      <point x="305" y="52" type="curve"/>
      <point x="287" y="66"/>
      <point x="276" y="78"/>
      <point x="259" y="97" type="curve"/>
      <point x="231" y="82" type="line"/>
      <point x="249" y="51"/>
      <point x="268" y="17"/>
      <point x="282" y="-10" type="curve"/>
      <point x="384" y="10"/>
      <point x="500" y="67"/>
      <point x="500" y="190" type="curve"/>
      <point x="500" y="304"/>
      <point x="400" y="367"/>
      <point x="245" y="367" type="curve"/>
      <point x="175" y="367"/>
      <point x="126" y="347"/>
    </contour>
    <contour>
      <point x="124" y="71" type="curve"/>
      <point x="120" y="231"/>
      <point x="117" y="451"/>
      <point x="121" y="611" type="curve"/>
      <point x="122" y="655"/>
      <point x="130" y="659"/>
      <point x="167" y="672" type="curve"/>
      <point x="168" y="698" type="line"/>
      <point x="20" y="710" type="line"/>
      <point x="27" y="521"/>
      <point x="42" y="239"/>
      <point x="27" y="2" type="curve"/>
      <point x="155" y="-3" type="line"/>
      <point x="160" y="27" type="line"/>
      <point x="140" y="34"/>
      <point x="125" y="47"/>
    </contour>
    <contour>
      <point x="394" y="443" type="curve"/>
      <point x="458" y="443"/>
      <point x="528" y="493"/>
      <point x="528" y="570" type="curve"/>
      <point x="528" y="640"/>
      <point x="478" y="697"/>
      <point x="394" y="697" type="curve"/>
      <point x="321" y="697"/>
      <point x="261" y="639"/>
      <point x="261" y="569" type="curve"/>
      <point x="261" y="490"/>
      <point x="321" y="444"/>
    </contour>
    <contour>
      <point x="388" y="485" type="curve"/>
      <point x="342" y="485"/>
      <point x="306" y="519"/>
      <point x="306" y="566" type="curve"/>
      <point x="306" y="608"/>
      <point x="338" y="641"/>
      <point x="382" y="642" type="curve"/>
      <point x="428" y="643"/>
      <point x="467" y="614"/>
      <point x="467" y="566" type="curve"/>
      <point x="467" y="519"/>
      <point x="437" y="485"/>
    </contour>
  </outline>
</glyph>
<glyph name="h_strok" format="1">
  <advance width="542"/>
  <outline>
    <contour>
      <point x="160" y="71" type="curve"/>
      <point x="156" y="231"/>
      <point x="156" y="391"/>
      <point x="160" y="551" type="curve"/>
      <point x="161" y="595"/>
      <point x="166" y="666"/>
      <point x="170" y="705" type="curve"/>
      <point x="161" y="710" type="line"/>
      <point x="113" y="701"/>
      <point x="69" y="695"/>
      <point x="29" y="689" type="curve"/>
      <point x="29" y="659" type="line"/>
      <point x="56" y="656"/>
      <point x="63" y="626"/>
      <point x="65" y="596" type="curve"/>
      <point x="74" y="421"/>
      <point x="74" y="245"/>
      <point x="65" y="70" type="curve"/>
      <point x="64" y="52"/>
      <point x="51" y="34"/>
      <point x="37" y="27" type="curve"/>
      <point x="37" y="-3" type="line"/>
      <point x="75" y="0"/>
      <point x="157" y="1"/>
      <point x="191" y="-3" type="curve"/>
      <point x="191" y="27" type="line"/>
      <point x="171" y="34"/>
      <point x="161" y="47"/>
    </contour>
    <contour>
      <point x="137" y="337" type="curve"/>
      <point x="146" y="272" type="line"/>
      <point x="170" y="319"/>
      <point x="224" y="351"/>
      <point x="266" y="351" type="curve"/>
      <point x="341" y="351"/>
      <point x="391" y="296"/>
      <point x="393" y="208" type="curve"/>
      <point x="396" y="97"/>
      <point x="376" y="43"/>
      <point x="357" y="27" type="curve"/>
      <point x="356" y="-3" type="line"/>
      <point x="409" y="1"/>
      <point x="445" y="0"/>
      <point x="536" y="-3" type="curve"/>
      <point x="537" y="27" type="line"/>
      <point x="486" y="43"/>
      <point x="484" y="56"/>
      <point x="481" y="96" type="curve"/>
      <point x="478" y="142"/>
      <point x="477" y="175"/>
      <point x="480" y="270" type="curve"/>
      <point x="483" y="359"/>
      <point x="430" y="410"/>
      <point x="311" y="410" type="curve"/>
      <point x="231" y="410"/>
      <point x="175" y="367"/>
    </contour>
    <contour>
      <point x="484" y="608" type="curve"/>
      <point x="462" y="612" type="line"/>
      <point x="429" y="563"/>
      <point x="195" y="573"/>
      <point x="23" y="557" type="curve"/>
      <point x="20" y="532" type="line"/>
      <point x="129" y="537"/>
      <point x="269" y="537"/>
      <point x="423" y="536" type="curve"/>
      <point x="444" y="547"/>
      <point x="468" y="579"/>
    </contour>
  </outline>
</glyph>
<glyph name="longs_t" format="1">
  <advance width="588"/>
  <outline>
    <contour>
      <point x="29" y="26" type="curve"/>
      <point x="29" y="-6" type="line"/>
      <point x="107" y="0"/>
      <point x="131" y="-1"/>
      <point x="228" y="-7" type="curve"/>
      <point x="228" y="26" type="line"/>
      <point x="207" y="35"/>
      <point x="172" y="45"/>
      <point x="166" y="73" type="curve"/>
      <point x="162" y="93"/>
      <point x="154" y="361"/>
      <point x="161" y="470" type="curve"/>
      <point x="167" y="569"/>
      <point x="203" y="637"/>
      <point x="274" y="635" type="curve"/>
      <point x="359" y="633"/>
      <point x="379" y="554"/>
      <point x="355" y="400" type="curve"/>
      <point x="434" y="396" type="line"/>
      <point x="440" y="527" type="line" smooth="yes"/>
      <point x="445" y="641"/>
      <point x="386" y="710"/>
      <point x="298" y="710" type="curve"/>
      <point x="160" y="710"/>
      <point x="96" y="580"/>
      <point x="78" y="485" type="curve"/>
      <point x="69" y="437"/>
      <point x="53" y="401"/>
      <point x="32" y="373" type="curve"/>
      <point x="31" y="342" type="line"/>
      <point x="76" y="343" type="line"/>
      <point x="75" y="232"/>
      <point x="73" y="75"/>
      <point x="72" y="67" type="curve"/>
      <point x="70" y="48"/>
      <point x="60" y="38"/>
    </contour>
    <contour>
      <point x="129" y="355" type="move"/>
    </contour>
    <component base="t" xOffset="282"/>
  </outline>
</glyph>
<glyph name="m_urrot" format="1">
  <advance width="751"/>
  <outline>
    <contour>
      <point x="324" y="714" type="curve"/>
      <point x="325" y="745" type="line"/>
      <point x="455" y="750" type="line"/>
      <point x="459" y="745" type="line"/>
      <point x="445" y="619" type="line" smooth="yes"/>
      <point x="439" y="569"/>
      <point x="446" y="569"/>
      <point x="489" y="565" type="curve"/>
      <point x="488" y="540" type="line"/>
      <point x="376" y="520" type="line"/>
      <point x="371" y="526" type="line"/>
      <point x="369" y="667" type="line" smooth="yes"/>
      <point x="368" y="714"/>
      <point x="360" y="714"/>
    </contour>
    <component base="m"/>
  </outline>
</glyph>
<glyph name="m_urrot.ss01" format="1">
  <advance width="800"/>
  <outline>
    <contour>
      <point x="413" y="679" type="curve"/>
      <point x="404" y="706" type="line"/>
      <point x="428" y="720"/>
      <point x="470" y="731"/>
      <point x="504" y="731" type="curve"/>
      <point x="539" y="731"/>
      <point x="571" y="671"/>
      <point x="571" y="629" type="curve"/>
      <point x="510" y="597"/>
      <point x="465" y="570"/>
      <point x="465" y="549" type="curve"/>
      <point x="465" y="512"/>
      <point x="535" y="511"/>
      <point x="640" y="572" type="curve"/>
      <point x="677" y="556" type="line"/>
      <point x="678" y="552" type="line"/>
      <point x="633" y="522"/>
      <point x="575" y="492"/>
      <point x="496" y="492" type="curve"/>
      <point x="458" y="492"/>
      <point x="403" y="503"/>
      <point x="403" y="552" type="curve"/>
      <point x="403" y="612"/>
      <point x="459" y="618"/>
      <point x="489" y="650" type="curve"/>
      <point x="489" y="684"/>
      <point x="456" y="688"/>
    </contour>
    <component base="m"/>
  </outline>
</glyph>
<glyph name="o_hook" format="1">
  <advance width="468"/>
  <outline>
    <contour>
      <point x="358" y="626" type="curve"/>
      <point x="253" y="612" type="line"/>
      <point x="310" y="547"/>
      <point x="340" y="493"/>
      <point x="271" y="493" type="curve"/>
      <point x="240" y="493"/>
      <point x="195" y="511"/>
      <point x="165" y="524" type="curve"/>
      <point x="146" y="499" type="line"/>
      <point x="210" y="474"/>
      <point x="259" y="457"/>
      <point x="299" y="457" type="curve"/>
      <point x="391" y="457"/>
      <point x="413" y="536"/>
    </contour>
    <component base="o"/>
  </outline>
</glyph>
<glyph name="o_ra" format="1">
  <advance width="525"/>
  <outline>
    <contour>
      <point x="48" y="510" type="curve"/>
      <point x="29" y="514" type="line"/>
      <point x="29" y="558"/>
      <point x="46" y="611"/>
      <point x="76" y="647" type="curve"/>
      <point x="85" y="644" type="line"/>
      <point x="105" y="619"/>
      <point x="144" y="575"/>
      <point x="181" y="575" type="curve"/>
      <point x="216" y="575"/>
      <point x="258" y="617"/>
      <point x="277" y="638" type="curve"/>
      <point x="287" y="636" type="line"/>
      <point x="313" y="587"/>
      <point x="344" y="555"/>
      <point x="383" y="555" type="curve"/>
      <point x="424" y="555"/>
      <point x="453" y="575"/>
      <point x="487" y="633" type="curve"/>
      <point x="504" y="614" type="line"/>
      <point x="470" y="536"/>
      <point x="385" y="492"/>
      <point x="299" y="492" type="curve"/>
      <point x="283" y="516"/>
      <point x="265" y="541"/>
      <point x="240" y="562" type="curve"/>
      <point x="212" y="553"/>
      <point x="179" y="537"/>
      <point x="146" y="504" type="curve"/>
      <point x="126" y="514"/>
      <point x="90" y="538"/>
      <point x="65" y="553" type="curve"/>
      <point x="52" y="540"/>
      <point x="52" y="523"/>
    </contour>
    <component base="o" xOffset="9"/>
  </outline>
</glyph>
<glyph name="o_tilde" format="1">
  <advance width="468"/>
  <outline>
    <contour>
      <point x="121" y="484" type="curve"/>
      <point x="95" y="492" type="line"/>
      <point x="95" y="531"/>
      <point x="119" y="606"/>
      <point x="164" y="606" type="curve"/>
      <point x="201" y="606"/>
      <point x="251" y="576"/>
      <point x="282" y="576" type="curve"/>
      <point x="308" y="576"/>
      <point x="311" y="593"/>
      <point x="328" y="614" type="curve"/>
      <point x="356" y="606" type="line"/>
      <point x="345" y="557"/>
      <point x="322" y="489"/>
      <point x="290" y="489" type="curve"/>
      <point x="248" y="489"/>
      <point x="196" y="523"/>
      <point x="168" y="523" type="curve"/>
      <point x="141" y="523"/>
      <point x="131" y="508"/>
    </contour>
    <component base="o"/>
  </outline>
</glyph>
<glyph name="p_bardes" format="1">
  <advance width="550"/>
  <outline>
    <contour>
      <point x="25" y="-74" type="curve"/>
      <point x="40" y="-82" type="line"/>
      <point x="87" y="-75"/>
      <point x="214" y="-85"/>
      <point x="412" y="-129" type="curve"/>
      <point x="418" y="-125" type="line"/>
      <point x="409" y="-96" type="line"/>
      <point x="311" y="-78"/>
      <point x="216" y="-51"/>
      <point x="69" y="-26" type="curve"/>
      <point x="60" y="-38"/>
      <point x="35" y="-64"/>
    </contour>
    <component base="p" xOffset="42"/>
  </outline>
</glyph>
<glyph name="q_etfin" format="1">
  <advance width="747"/>
  <outline>
    <contour>
      <point x="481" y="321" type="curve"/>
      <point x="481" y="276" type="line"/>
      <point x="521" y="344"/>
      <point x="598" y="320"/>
      <point x="598" y="259" type="curve"/>
      <point x="598" y="220"/>
      <point x="518" y="157"/>
      <point x="466" y="150" type="curve"/>
      <point x="477" y="111" type="line"/>
      <point x="514" y="134"/>
      <point x="630" y="188"/>
      <point x="717" y="295" type="curve"/>
      <point x="717" y="334"/>
      <point x="620" y="412"/>
      <point x="605" y="412" type="curve"/>
      <point x="590" y="412"/>
      <point x="521" y="360"/>
    </contour>
    <contour>
      <point x="603" y="206" type="curve"/>
      <point x="477" y="111" type="line"/>
      <point x="514" y="134"/>
      <point x="532" y="139"/>
      <point x="560" y="139" type="curve"/>
      <point x="593" y="139"/>
      <point x="629" y="108"/>
      <point x="629" y="57" type="curve"/>
      <point x="629" y="-1"/>
      <point x="558" y="-80"/>
      <point x="440" y="-105" type="curve"/>
      <point x="452" y="-144" type="line"/>
      <point x="549" y="-120"/>
      <point x="732" y="-2"/>
      <point x="732" y="90" type="curve"/>
      <point x="732" y="153"/>
      <point x="650" y="196"/>
    </contour>
    <component base="q"/>
  </outline>
</glyph>
<glyph name="q_etfin_ring" format="1">
  <advance width="787"/>
  <outline>
    <contour>
      <point x="455" y="489" type="curve"/>
      <point x="525" y="489"/>
      <point x="596" y="532"/>
      <point x="596" y="603" type="curve"/>
      <point x="596" y="683"/>
      <point x="525" y="711"/>
      <point x="455" y="711" type="curve"/>
      <point x="384" y="711"/>
      <point x="316" y="674"/>
      <point x="316" y="600" type="curve"/>
      <point x="316" y="530"/>
      <point x="384" y="489"/>
    </contour>
    <contour>
      <point x="456" y="526" type="curve"/>
      <point x="413" y="526"/>
      <point x="389" y="564"/>
      <point x="389" y="600" type="curve"/>
      <point x="389" y="636"/>
      <point x="413" y="675"/>
      <point x="456" y="675" type="curve"/>
      <point x="498" y="675"/>
      <point x="522" y="636"/>
      <point x="522" y="600" type="curve"/>
      <point x="522" y="564"/>
      <point x="498" y="526"/>
    </contour>
    <contour>
      <point x="480" y="-105" type="curve"/>
      <point x="492" y="-144" type="line"/>
      <point x="602" y="-132"/>
      <point x="822" y="17"/>
      <point x="822" y="128" type="curve"/>
      <point x="822" y="198"/>
      <point x="731" y="210"/>
      <point x="688" y="211" type="curve"/>
      <point x="674" y="189" type="line"/>
      <point x="723" y="217"/>
      <point x="772" y="251"/>
      <point x="807" y="295" type="curve"/>
      <point x="807" y="334"/>
      <point x="710" y="412"/>
      <point x="695" y="412" type="curve"/>
      <point x="680" y="412"/>
      <point x="561" y="360"/>
      <point x="521" y="321" type="curve"/>
      <point x="521" y="276" type="line"/>
      <point x="608" y="368"/>
      <point x="688" y="320"/>
      <point x="688" y="259" type="curve"/>
      <point x="688" y="220"/>
      <point x="558" y="157"/>
      <point x="506" y="150" type="curve"/>
      <point x="517" y="111" type="line"/>
      <point x="630" y="156" type="line"/>
      <point x="680" y="156"/>
      <point x="706" y="126"/>
      <point x="706" y="85" type="curve"/>
      <point x="706" y="10"/>
      <point x="598" y="-80"/>
    </contour>
    <contour>
      <point x="40" y="0"/>
      <point x="40" y="0"/>
    </contour>
    <component base="q" xOffset="40"/>
  </outline>
</glyph>
<glyph name="q_ra" format="1">
  <advance width="543"/>
  <outline>
    <contour>
      <point x="148" y="539" type="curve"/>
      <point x="128" y="556" type="line"/>
      <point x="136" y="572"/>
      <point x="172" y="621"/>
      <point x="191" y="648" type="curve"/>
      <point x="200" y="646" type="line"/>
      <point x="224" y="621"/>
      <point x="269" y="580"/>
      <point x="289" y="581" type="curve"/>
      <point x="304" y="582"/>
      <point x="326" y="615"/>
      <point x="353" y="658" type="curve"/>
      <point x="364" y="656" type="line"/>
      <point x="382" y="627"/>
      <point x="417" y="588"/>
      <point x="445" y="589" type="curve"/>
      <point x="466" y="590"/>
      <point x="476" y="612"/>
      <point x="506" y="662" type="curve"/>
      <point x="533" y="644" type="line"/>
      <point x="511" y="593"/>
      <point x="459" y="536"/>
      <point x="423" y="514" type="curve"/>
      <point x="404" y="522"/>
      <point x="277" y="590"/>
      <point x="313" y="581" type="curve"/>
      <point x="340" y="574" type="line"/>
      <point x="312" y="562"/>
      <point x="284" y="546"/>
      <point x="249" y="506" type="curve"/>
      <point x="218" y="525"/>
      <point x="195" y="558"/>
      <point x="171" y="562" type="curve"/>
      <point x="159" y="558"/>
      <point x="152" y="546"/>
    </contour>
    <component base="q"/>
  </outline>
</glyph>
<glyph name="q_ring" format="1">
  <advance width="524"/>
  <outline>
    <contour>
      <point x="40" y="181" type="curve"/>
      <point x="40" y="71"/>
      <point x="127" y="-10"/>
      <point x="277" y="-10" type="curve"/>
      <point x="286" y="-10"/>
      <point x="345" y="26"/>
      <point x="400" y="39" type="curve"/>
      <point x="394" y="-167" type="line" smooth="yes"/>
      <point x="393" y="-198"/>
      <point x="376" y="-204"/>
      <point x="349" y="-213" type="curve"/>
      <point x="349" y="-243" type="line"/>
      <point x="384" y="-242"/>
      <point x="425" y="-240"/>
      <point x="444" y="-240" type="curve"/>
      <point x="461" y="-240"/>
      <point x="508" y="-241"/>
      <point x="523" y="-243" type="curve"/>
      <point x="523" y="-213" type="line"/>
      <point x="500" y="-202"/>
      <point x="491" y="-191"/>
      <point x="489" y="-155" type="curve"/>
      <point x="484" y="-66"/>
      <point x="486" y="163"/>
      <point x="492" y="250" type="curve"/>
      <point x="497" y="326"/>
      <point x="508" y="370"/>
      <point x="524" y="422" type="curve"/>
      <point x="495" y="431" type="line"/>
      <point x="475" y="404"/>
      <point x="451" y="371"/>
      <point x="424" y="335" type="curve"/>
      <point x="367" y="369"/>
      <point x="323" y="390"/>
      <point x="252" y="390" type="curve"/>
      <point x="152" y="390"/>
      <point x="40" y="331"/>
    </contour>
    <contour>
      <point x="140" y="192" type="curve"/>
      <point x="140" y="273"/>
      <point x="194" y="340"/>
      <point x="272" y="340" type="curve"/>
      <point x="379" y="340"/>
      <point x="437" y="259"/>
      <point x="400" y="100" type="curve"/>
      <point x="400" y="99" type="line"/>
      <point x="355" y="61"/>
      <point x="311" y="45"/>
      <point x="288" y="45" type="curve"/>
      <point x="188" y="45"/>
      <point x="140" y="121"/>
    </contour>
    <contour>
      <point x="385" y="439" type="curve"/>
      <point x="455" y="439"/>
      <point x="513" y="489"/>
      <point x="513" y="550" type="curve"/>
      <point x="513" y="611"/>
      <point x="455" y="661"/>
      <point x="385" y="661" type="curve"/>
      <point x="314" y="661"/>
      <point x="257" y="611"/>
      <point x="257" y="550" type="curve"/>
      <point x="257" y="489"/>
      <point x="314" y="439"/>
    </contour>
    <contour>
      <point x="386" y="485" type="curve"/>
      <point x="343" y="485"/>
      <point x="311" y="514"/>
      <point x="311" y="550" type="curve"/>
      <point x="311" y="586"/>
      <point x="343" y="615"/>
      <point x="386" y="615" type="curve"/>
      <point x="428" y="615"/>
      <point x="460" y="586"/>
      <point x="460" y="550" type="curve"/>
      <point x="460" y="514"/>
      <point x="428" y="485"/>
    </contour>
  </outline>
</glyph>
<glyph name="r_hook" format="1">
  <advance width="320"/>
  <outline>
    <contour>
      <point x="163" y="612" type="line"/>
      <point x="163" y="601" type="line"/>
      <point x="269" y="569"/>
      <point x="254" y="504"/>
      <point x="197" y="504" type="curve"/>
      <point x="145" y="504"/>
      <point x="80" y="537"/>
      <point x="52" y="554" type="curve"/>
      <point x="33" y="535" type="line"/>
      <point x="66" y="509"/>
      <point x="128" y="477"/>
      <point x="192" y="476" type="curve"/>
      <point x="261" y="475"/>
      <point x="324" y="497"/>
      <point x="323" y="553" type="curve"/>
      <point x="322" y="606"/>
      <point x="295" y="637"/>
      <point x="255" y="653" type="curve"/>
    </contour>
    <component base="r" xOffset="-33"/>
  </outline>
</glyph>
<glyph name="r_ra" format="1">
  <advance width="455"/>
  <outline>
    <contour>
      <point x="88" y="540" type="curve"/>
      <point x="68" y="559" type="line"/>
      <point x="78" y="574"/>
      <point x="116" y="621"/>
      <point x="136" y="647" type="curve"/>
      <point x="145" y="644" type="line"/>
      <point x="167" y="619"/>
      <point x="210" y="575"/>
      <point x="229" y="575" type="curve"/>
      <point x="244" y="575"/>
      <point x="268" y="607"/>
      <point x="297" y="648" type="curve"/>
      <point x="307" y="646" type="line"/>
      <point x="323" y="616"/>
      <point x="356" y="576"/>
      <point x="384" y="576" type="curve"/>
      <point x="405" y="576"/>
      <point x="424" y="595"/>
      <point x="458" y="633" type="curve"/>
      <point x="475" y="614" type="line"/>
      <point x="449" y="576"/>
      <point x="376" y="532"/>
      <point x="339" y="512" type="curve"/>
      <point x="324" y="519"/>
      <point x="300" y="546"/>
      <point x="274" y="563" type="curve"/>
      <point x="247" y="554"/>
      <point x="221" y="539"/>
      <point x="186" y="504" type="curve"/>
      <point x="156" y="524"/>
      <point x="135" y="558"/>
      <point x="112" y="562" type="curve"/>
      <point x="100" y="559"/>
      <point x="92" y="547"/>
    </contour>
    <contour>
      <point x="203" y="320" type="curve"/>
      <point x="200" y="264" type="line"/>
      <point x="231" y="325"/>
      <point x="323" y="354"/>
      <point x="371" y="274" type="curve"/>
      <point x="392" y="274" type="line"/>
      <point x="435" y="383" type="line"/>
      <point x="413" y="399"/>
      <point x="332" y="409"/>
      <point x="318" y="409" type="curve"/>
      <point x="289" y="379"/>
      <point x="240" y="349"/>
    </contour>
    <contour>
      <point x="218" y="330" type="curve"/>
      <point x="223" y="401" type="line"/>
      <point x="214" y="408" type="line"/>
      <point x="170" y="402"/>
      <point x="124" y="400"/>
      <point x="55" y="398" type="curve"/>
      <point x="55" y="368" type="line"/>
      <point x="116" y="362"/>
      <point x="124" y="326"/>
      <point x="124" y="287" type="curve"/>
      <point x="124" y="217"/>
      <point x="122" y="105"/>
      <point x="119" y="78" type="curve"/>
      <point x="116" y="53"/>
      <point x="111" y="40"/>
      <point x="96" y="27" type="curve"/>
      <point x="96" y="-3" type="line"/>
      <point x="116" y="-1"/>
      <point x="150" y="0"/>
      <point x="181" y="0" type="curve"/>
      <point x="207" y="0"/>
      <point x="239" y="-1"/>
      <point x="297" y="-3" type="curve"/>
      <point x="297" y="27" type="line"/>
      <point x="241" y="40"/>
      <point x="223" y="43"/>
      <point x="220" y="76" type="curve"/>
      <point x="217" y="106"/>
      <point x="215" y="294"/>
    </contour>
  </outline>
</glyph>
<glyph name="t_acute" format="1">
  <advance width="306"/>
  <outline>
    <contour>
      <point x="249" y="696" type="curve"/>
      <point x="168" y="651" type="line"/>
      <point x="231" y="602"/>
      <point x="278" y="506"/>
      <point x="203" y="506" type="curve"/>
      <point x="170" y="506"/>
      <point x="153" y="540"/>
      <point x="130" y="562" type="curve"/>
      <point x="107" y="546" type="line"/>
      <point x="126" y="515"/>
      <point x="160" y="469"/>
      <point x="210" y="468" type="curve"/>
      <point x="277" y="467"/>
      <point x="317" y="521"/>
      <point x="317" y="597" type="curve"/>
      <point x="317" y="649"/>
      <point x="274" y="675"/>
    </contour>
    <contour>
      <point x="30" y="341" type="line"/>
      <point x="62" y="330" type="line"/>
      <point x="62" y="103" type="line" smooth="yes"/>
      <point x="62" y="37"/>
      <point x="118" y="-11"/>
      <point x="171" y="-11" type="curve"/>
      <point x="219" y="-11"/>
      <point x="275" y="18"/>
      <point x="306" y="39" type="curve"/>
      <point x="301" y="70" type="line"/>
      <point x="200" y="38"/>
      <point x="156" y="62"/>
      <point x="151" y="155" type="curve"/>
      <point x="149" y="190"/>
      <point x="149" y="363"/>
      <point x="155" y="448" type="curve"/>
      <point x="72" y="448" type="line"/>
      <point x="68" y="398" type="line"/>
      <point x="30" y="397" type="line"/>
    </contour>
    <contour>
      <point x="142" y="400" type="line"/>
      <point x="150" y="330" type="line"/>
      <point x="243" y="330" type="line"/>
      <point x="312" y="384" type="line"/>
      <point x="313" y="400" type="line"/>
    </contour>
    <contour>
      <point x="95.421" y="455.503" type="move" name="_top"/>
    </contour>
    <contour>
      <point x="155.716" y="765.697" type="move" name="top"/>
    </contour>
  </outline>
</glyph>
<glyph name="t_ra" format="1">
  <advance width="366"/>
  <outline>
    <contour>
      <point x="37" y="619" type="curve"/>
      <point x="21" y="641" type="line"/>
      <point x="33" y="654"/>
      <point x="80" y="693"/>
      <point x="105" y="715" type="curve"/>
      <point x="113" y="711" type="line"/>
      <point x="130" y="681"/>
      <point x="155" y="643"/>
      <point x="175" y="639" type="curve"/>
      <point x="189" y="636"/>
      <point x="208" y="650"/>
      <point x="244" y="685" type="curve"/>
      <point x="255" y="681" type="line"/>
      <point x="265" y="648"/>
      <point x="290" y="606"/>
      <point x="317" y="596" type="curve"/>
      <point x="328" y="592"/>
      <point x="361" y="606"/>
      <point x="405" y="657" type="curve"/>
      <point x="418" y="635" type="line"/>
      <point x="382" y="582"/>
      <point x="318" y="541"/>
      <point x="278" y="529" type="curve"/>
      <point x="263" y="540"/>
      <point x="235" y="575"/>
      <point x="208" y="610" type="curve"/>
      <point x="184" y="602"/>
      <point x="159" y="585"/>
      <point x="127" y="563" type="curve"/>
      <point x="101" y="589"/>
      <point x="87" y="627"/>
      <point x="64" y="636" type="curve"/>
      <point x="52" y="635"/>
      <point x="42" y="625"/>
    </contour>
    <contour>
      <point x="29" y="339" type="line"/>
      <point x="61" y="330" type="line"/>
      <point x="61" y="103" type="line" smooth="yes"/>
      <point x="61" y="37"/>
      <point x="107" y="-11"/>
      <point x="160" y="-11" type="curve"/>
      <point x="208" y="-11"/>
      <point x="303" y="30"/>
      <point x="324" y="41" type="curve"/>
      <point x="320" y="70" type="line"/>
      <point x="205" y="53"/>
      <point x="155" y="62"/>
      <point x="150" y="155" type="curve"/>
      <point x="148" y="190"/>
      <point x="149" y="418"/>
      <point x="155" y="503" type="curve"/>
      <point x="124" y="503" type="line"/>
      <point x="100" y="453"/>
      <point x="68" y="408"/>
      <point x="29" y="370" type="curve"/>
    </contour>
    <contour>
      <point x="141" y="400" type="line"/>
      <point x="149" y="337" type="line"/>
      <point x="346" y="358" type="line"/>
      <point x="346" y="400" type="line"/>
    </contour>
  </outline>
</glyph>
<glyph name="t_tilde" format="1">
  <advance width="306"/>
  <outline>
    <contour>
      <point x="14" y="524" type="curve"/>
      <point x="10" y="524" type="line"/>
      <point x="2" y="545" type="line"/>
      <point x="20" y="597"/>
      <point x="59" y="646"/>
      <point x="101" y="646" type="curve"/>
      <point x="201" y="646"/>
      <point x="204" y="562"/>
      <point x="254" y="562" type="curve"/>
      <point x="285" y="562"/>
      <point x="278" y="610"/>
      <point x="254" y="630" type="curve"/>
      <point x="258" y="633" type="line"/>
      <point x="291" y="621" type="line"/>
      <point x="324" y="590"/>
      <point x="309" y="497"/>
      <point x="245" y="497" type="curve"/>
      <point x="181" y="497"/>
      <point x="155" y="569"/>
      <point x="91" y="569" type="curve"/>
      <point x="55" y="569"/>
      <point x="35" y="556"/>
    </contour>
    <component base="t"/>
  </outline>
</glyph>
<glyph name="us_ra" format="1">
  <advance width="473"/>
  <outline>
    <contour>
      <point x="66" y="522" type="curve"/>
      <point x="46" y="541" type="line"/>
      <point x="56" y="556"/>
      <point x="94" y="603"/>
      <point x="115" y="630" type="curve"/>
      <point x="123" y="627" type="line"/>
      <point x="146" y="601"/>
      <point x="177" y="568"/>
      <point x="198" y="568" type="curve"/>
      <point x="212" y="568"/>
      <point x="228" y="585"/>
      <point x="257" y="627" type="curve"/>
      <point x="268" y="625" type="line"/>
      <point x="284" y="594"/>
      <point x="317" y="558"/>
      <point x="345" y="553" type="curve"/>
      <point x="357" y="551"/>
      <point x="387" y="571"/>
      <point x="420" y="630" type="curve"/>
      <point x="437" y="611" type="line"/>
      <point x="412" y="552"/>
      <point x="357" y="499"/>
      <point x="320" y="480" type="curve"/>
      <point x="303" y="488"/>
      <point x="269" y="517"/>
      <point x="235" y="547" type="curve"/>
      <point x="214" y="534"/>
      <point x="193" y="513"/>
      <point x="165" y="485" type="curve"/>
      <point x="135" y="505"/>
      <point x="114" y="540"/>
      <point x="89" y="544" type="curve"/>
      <point x="78" y="541"/>
      <point x="70" y="529"/>
    </contour>
    <component base="usmod.ss01"/>
  </outline>
</glyph>
